<svg xmlns="http://www.w3.org/2000/svg" xmlns:xlink="http://www.w3.org/1999/xlink" width="546" zoomAndPan="magnify" viewBox="0 0 409.5 464.999988" height="620" preserveAspectRatio="xMidYMid meet" version="1.0"><defs><g/><clipPath id="6f45712dc8"><path d="M 41.578125 9 L 335 9 L 335 284.09375 L 41.578125 284.09375 Z M 41.578125 9 " clip-rule="nonzero"/></clipPath></defs><g clip-path="url(#6f45712dc8)"><path fill="#04471c" d="M 163.28125 139.621094 C 160.214844 144.105469 157.058594 148.53125 153.828125 152.898438 C 137.546875 174.914062 119.3125 195.546875 99.707031 213.941406 C 69.496094 242.753906 35.546875 261.078125 -0.890625 273.257812 C -37.972656 285.652344 -77.589844 291.8125 -118.742188 295.347656 C -135.339844 296.824219 -151.355469 297.109375 -167.1875 299.328125 C -177.960938 300.839844 -188.636719 303.207031 -199.34375 307.402344 C -221.421875 316.109375 -248.769531 336.359375 -262.738281 360.929688 C -272.1875 377.554688 -275.578125 396.097656 -266.886719 414.242188 C -274.363281 396.09375 -270.203125 378.207031 -260.105469 362.519531 C -245.449219 339.75 -218.335938 321.679688 -196.761719 314.492188 C -186.496094 311.046875 -176.34375 309.335938 -166.140625 308.417969 C -150.363281 307 -134.503906 307.519531 -118.003906 306.878906 C -75.523438 305.105469 -34.4375 300.75 4.183594 289.410156 C 43.652344 277.816406 80.429688 258.902344 113.683594 229.03125 C 134.5 210.023438 154.210938 188.878906 171.277344 165.792969 C 174.953125 160.820312 178.503906 155.761719 181.921875 150.625 C 184.078125 151.222656 186.359375 151.691406 188.765625 152.019531 C 206.324219 154.351562 228.726562 149.125 251.394531 140.269531 C 282.554688 128.09375 314.234375 109.40625 334.125 96.578125 C 313.601562 108.019531 281.019531 124.488281 249.390625 134.628906 C 227.730469 141.570312 206.59375 145.570312 190.34375 142.402344 C 189.410156 142.222656 188.503906 142.015625 187.628906 141.785156 C 197.769531 125.585938 206.625 108.664062 214.011719 91.292969 C 218.652344 80.105469 228.25 55.347656 226.429688 37.078125 C 225.304688 25.789062 220.480469 16.5625 210.242188 11.746094 C 204.984375 9.304688 199.097656 8.855469 193.488281 10.226562 C 188.417969 11.464844 183.582031 14.007812 179.917969 17.378906 C 162.523438 33.441406 147.152344 73.132812 149.816406 105.148438 C 150.949219 118.769531 155.109375 130.996094 163.28125 139.621094 Z M 169.90625 129.632812 C 179.523438 114.699219 188.085938 99.183594 195.179688 83.132812 C 198.816406 75.097656 206.183594 58.777344 207.476562 44.480469 C 208.097656 37.582031 207.972656 30.945312 202.246094 28.007812 C 200.722656 27.21875 198.976562 27.109375 197.300781 27.445312 C 195.078125 27.882812 192.910156 28.851562 191.253906 30.246094 C 175.730469 43.28125 161.890625 76.914062 162.769531 104.402344 C 163.074219 113.949219 165.195312 122.800781 169.90625 129.632812 Z M 169.90625 129.632812 " fill-opacity="1" fill-rule="evenodd"/></g><path fill="#058c42" d="M 254.941406 194.230469 C 255.222656 185.945312 286.320312 182.40625 292.570312 183.363281 C 322.882812 187.996094 349.976562 207.746094 361.859375 236.097656 C 362.386719 237.355469 359.667969 237.886719 358.335938 238.199219 C 350.042969 240.15625 340.550781 240.933594 332.109375 240.171875 C 306.511719 237.859375 284.03125 232.476562 264.320312 215.53125 C 261.386719 213.007812 254.601562 204.328125 254.941406 194.230469 Z M 254.941406 194.230469 " fill-opacity="1" fill-rule="evenodd"/><path fill="#0d2818" d="M 261.832031 196.574219 C 262.632812 194.621094 264.886719 195.726562 266.609375 196.105469 C 272.289062 197.351562 277.710938 199.035156 283.261719 200.738281 C 301.066406 206.203125 317.890625 212.1875 334.371094 220.890625 C 338.972656 223.324219 343.515625 225.785156 348.164062 228.117188 C 349.835938 228.957031 351.566406 229.683594 353.21875 230.570312 C 354.351562 231.175781 356.433594 232.703125 356.433594 232.703125 C 356.433594 232.703125 353.953125 230.988281 352.628906 230.273438 C 350.1875 228.953125 347.609375 227.863281 345.015625 226.882812 C 338.121094 224.277344 331.410156 221.3125 324.574219 218.574219 C 313.605469 214.179688 302.199219 208.359375 290.5625 205.960938 C 286.140625 205.050781 281.941406 203.058594 277.578125 201.957031 C 273.101562 200.832031 268.746094 200.316406 264.820312 197.9375 C 263.714844 197.265625 263.429688 196.109375 262.589844 195.386719 " fill-opacity="1" fill-rule="evenodd"/><path fill="#0d2818" d="M 270.882812 198.722656 C 270.078125 198.09375 273.675781 196.863281 274.574219 196.640625 C 276.816406 196.082031 279.09375 195.660156 281.382812 195.335938 C 289.566406 194.167969 298.847656 193.867188 307.035156 194.652344 C 309.273438 194.867188 311.734375 195.117188 313.910156 195.71875 C 315.011719 196.027344 317.164062 196.835938 317.164062 196.835938 C 317.164062 196.835938 316.707031 196.6875 316.46875 196.660156 C 315.113281 196.492188 313.722656 196.308594 312.367188 196.289062 C 308.902344 196.234375 305.453125 196.808594 302.007812 197.066406 C 295.101562 197.585938 287.230469 196.394531 280.425781 197.671875 C 278.636719 198.007812 272.996094 199.492188 271.402344 198.125 " fill-opacity="1" fill-rule="evenodd"/><path fill="#0d2818" d="M 299.386719 208.488281 C 299.101562 206.402344 305.957031 206.730469 306.808594 206.664062 C 315.609375 206.003906 323.847656 205.523438 332.542969 207.105469 C 335.199219 207.589844 337.847656 208.046875 340.386719 209.007812 C 341.109375 209.28125 343.269531 209.921875 342.496094 209.980469 C 340.203125 210.152344 337.382812 209.195312 335.070312 209.066406 C 328.347656 208.699219 321.671875 208.082031 314.945312 207.976562 C 312.9375 207.945312 307.402344 206.707031 306.234375 208.066406 " fill-opacity="1" fill-rule="evenodd"/><path fill="#0d2818" d="M 280.90625 202.398438 C 280.8125 202.027344 280.347656 201.128906 280.699219 201.273438 C 281.484375 201.59375 282.496094 203.15625 283.03125 203.699219 C 285.066406 205.765625 287.214844 207.394531 289.554688 209.097656 C 296.007812 213.792969 300.714844 219.992188 306.515625 225.367188 C 308.324219 227.039062 310.648438 228.652344 312.015625 230.726562 C 312.605469 231.625 313.585938 233.550781 313.585938 233.550781 C 313.585938 233.550781 311.75 231.453125 310.75 230.480469 C 308.980469 228.753906 307.039062 227.078125 305.164062 225.46875 C 299.335938 220.457031 293.679688 215.3125 288.148438 209.996094 C 285.40625 207.355469 282.113281 205.226562 279.222656 202.742188 C 278.890625 202.453125 276.695312 200.539062 276.996094 200.195312 " fill-opacity="1" fill-rule="evenodd"/><path fill="#0d2818" d="M 313.433594 214.65625 C 312.8125 209.210938 317.628906 216.261719 319.636719 217.699219 C 324.65625 221.296875 328.644531 225.421875 333.214844 229.582031 C 335.105469 231.304688 337.042969 232.960938 338.921875 234.699219 C 338.921875 234.699219 342.398438 237.496094 341.964844 237.527344 C 341.574219 237.558594 340.460938 236.234375 340.148438 235.964844 C 338.09375 234.199219 336.007812 232.667969 333.78125 231.125 C 324.996094 225.023438 316.953125 217.707031 309.171875 211.015625 " fill-opacity="1" fill-rule="evenodd"/><g fill="#04471c" fill-opacity="1"><g transform="translate(46.978369, 366.257858)"><g><path d="M 20.253906 -32.480469 C 20.625 -33.34375 20.75 -34.210938 20.75 -35.074219 C 21.367188 -35.445312 22.105469 -36.0625 22.230469 -36.925781 C 22.601562 -38.039062 23.710938 -38.65625 24.207031 -39.644531 C 25.6875 -40.386719 27.171875 -41.621094 28.898438 -42.113281 C 30.875 -42.855469 32.976562 -43.472656 35.074219 -43.84375 C 36.925781 -44.089844 38.902344 -44.585938 40.632812 -45.203125 C 41.992188 -45.820312 43.347656 -45.820312 44.832031 -45.820312 C 45.449219 -45.820312 45.941406 -45.820312 46.558594 -46.066406 C 46.929688 -46.3125 47.300781 -46.3125 47.796875 -46.3125 C 48.164062 -46.3125 48.414062 -46.3125 48.660156 -46.3125 C 49.648438 -46.3125 49.894531 -46.191406 49.648438 -44.335938 C 49.648438 -44.214844 49.523438 -44.089844 49.523438 -43.84375 C 49.894531 -42.363281 49.648438 -40.878906 49.773438 -39.398438 C 49.773438 -37.667969 49.894531 -36.0625 49.773438 -34.332031 C 49.773438 -32.480469 50.511719 -30.875 50.265625 -29.023438 C 50.757812 -27.664062 50.757812 -26.183594 50.757812 -24.699219 C 50.757812 -24.578125 50.757812 -24.328125 51.007812 -24.207031 C 51.625 -22.847656 51.128906 -21.242188 51.746094 -20.007812 C 51.871094 -17.660156 52.859375 -13.214844 53.230469 -10.992188 C 53.476562 -9.015625 55.207031 -4.691406 55.207031 -2.71875 C 55.328125 -2.46875 55.453125 -2.097656 55.574219 -1.851562 C 56.5625 1.113281 58.046875 3.953125 59.773438 6.546875 C 60.394531 7.78125 61.75 7.902344 63.234375 8.027344 C 63.480469 7.902344 63.726562 7.78125 63.726562 7.535156 C 63.851562 7.164062 63.726562 7.039062 63.480469 6.917969 C 63.234375 6.667969 62.863281 6.546875 62.492188 6.421875 C 60.023438 5.558594 57.550781 -1.730469 57.058594 -3.953125 C 55.945312 -6.792969 56.6875 -7.65625 55.574219 -10.128906 C 55.207031 -10.621094 55.824219 -10.992188 55.574219 -11.363281 C 55.328125 -12.101562 55.453125 -14.695312 55.453125 -15.4375 C 55.328125 -15.933594 54.957031 -16.550781 54.957031 -17.289062 C 54.957031 -19.144531 54.710938 -20.996094 53.96875 -22.722656 C 54.09375 -23.960938 53.351562 -24.824219 53.351562 -25.933594 C 53.476562 -27.046875 53.601562 -28.28125 52.984375 -29.515625 C 52.859375 -29.640625 52.984375 -30.132812 53.105469 -30.382812 C 53.230469 -30.753906 53.351562 -31.121094 53.230469 -31.371094 C 52.859375 -31.988281 52.859375 -32.726562 52.859375 -33.34375 C 52.859375 -37.050781 52.984375 -40.753906 52.859375 -44.707031 C 52.859375 -45.941406 53.105469 -47.054688 54.09375 -48.042969 C 54.21875 -48.042969 54.21875 -48.289062 54.21875 -48.535156 C 54.09375 -48.785156 54.09375 -49.277344 53.847656 -49.523438 C 53.105469 -50.636719 52.734375 -51.746094 53.351562 -53.230469 C 53.722656 -53.96875 53.230469 -55.207031 53.847656 -56.070312 C 53.96875 -56.195312 53.847656 -56.6875 53.847656 -56.933594 C 53.722656 -58.417969 54.09375 -59.652344 54.710938 -61.011719 C 54.710938 -61.378906 54.835938 -61.628906 54.835938 -62.121094 C 55.207031 -65.949219 59.898438 -81.265625 61.503906 -83.734375 C 62.367188 -85.464844 63.109375 -87.316406 63.355469 -89.539062 C 63.480469 -90.402344 63.605469 -91.269531 63.234375 -92.132812 C 63.109375 -92.625 63.234375 -93.367188 62.738281 -93.863281 C 61.875 -95.097656 60.394531 -95.34375 59.035156 -95.714844 C 58.539062 -95.46875 57.921875 -95.46875 57.429688 -95.097656 C 56.316406 -93.863281 54.957031 -92.996094 53.722656 -91.886719 C 52.242188 -90.402344 50.636719 -88.921875 49.894531 -87.070312 C 49.773438 -86.945312 49.648438 -86.945312 49.648438 -86.945312 C 49.648438 -86.945312 49.402344 -87.191406 49.523438 -87.191406 C 50.390625 -88.550781 49.523438 -89.910156 49.03125 -91.019531 C 48.785156 -91.761719 48.164062 -92.257812 47.546875 -92.625 C 47.300781 -92.875 47.054688 -92.875 46.808594 -92.875 C 46.191406 -92.875 45.820312 -92.503906 45.820312 -91.761719 C 45.820312 -90.402344 45.324219 -89.046875 44.832031 -87.933594 C 44.460938 -87.070312 44.214844 -86.328125 43.84375 -85.464844 C 43.472656 -84.476562 43.101562 -83.488281 42.609375 -82.375 C 41.742188 -80.894531 40.753906 -79.289062 39.890625 -77.683594 C 37.914062 -73.730469 35.9375 -69.902344 33.714844 -66.199219 C 32.976562 -64.839844 32.234375 -63.605469 31.492188 -62.246094 C 30.628906 -60.515625 29.515625 -58.910156 28.898438 -57.058594 C 28.28125 -55.945312 27.542969 -54.957031 27.046875 -53.722656 C 25.316406 -50.882812 23.589844 -48.042969 22.230469 -44.953125 C 21.488281 -43.597656 20.871094 -42.113281 19.390625 -41.496094 C 18.277344 -40.878906 17.167969 -40.015625 15.808594 -39.769531 C 15.066406 -39.644531 14.449219 -39.519531 13.957031 -38.902344 C 13.460938 -38.410156 12.472656 -38.78125 11.855469 -38.285156 C 11.609375 -38.164062 11.113281 -38.039062 10.867188 -37.914062 C 10.375 -37.296875 9.757812 -37.175781 9.140625 -36.925781 C 8.273438 -36.679688 7.410156 -36.308594 6.667969 -35.691406 C 1.976562 -33.46875 -2.347656 -30.257812 -4.570312 -25.441406 C -4.941406 -24.578125 -5.0625 -23.464844 -4.691406 -22.601562 C -4.691406 -22.355469 -4.199219 -21.984375 -3.953125 -21.859375 C -3.703125 -21.738281 -3.335938 -22.230469 -3.335938 -22.601562 L -3.335938 -23.960938 C -3.335938 -24.453125 -3.085938 -24.824219 -2.71875 -25.195312 C -1.605469 -26.058594 -0.371094 -26.675781 0.125 -28.035156 C 0.246094 -28.160156 0.371094 -28.28125 0.492188 -28.28125 C 3.210938 -29.886719 5.558594 -31.863281 8.398438 -33.097656 C 9.632812 -33.46875 10.496094 -34.582031 11.734375 -34.828125 C 11.980469 -34.828125 12.101562 -34.953125 12.101562 -35.074219 C 12.472656 -36.0625 13.339844 -36.1875 14.203125 -36.1875 C 14.574219 -36.1875 15.066406 -36.433594 15.4375 -36.679688 C 15.933594 -36.925781 16.671875 -37.175781 17.289062 -37.175781 C 17.539062 -37.175781 17.785156 -37.175781 17.90625 -37.050781 C 16.917969 -35.074219 15.683594 -32.976562 14.449219 -31 C 13.707031 -29.515625 13.089844 -28.160156 12.101562 -26.800781 C 10.25 -23.960938 8.523438 -20.871094 6.917969 -17.785156 C 6.175781 -16.300781 5.804688 -14.574219 4.570312 -13.339844 C 4.199219 -13.089844 3.953125 -12.722656 4.074219 -12.472656 C 4.199219 -11.855469 3.828125 -11.363281 3.457031 -10.992188 C 1.730469 -8.152344 0.125 -5.3125 -0.492188 -1.976562 C -1.234375 -0.492188 -0.492188 0.988281 -0.125 2.46875 C 0.125 2.964844 0.742188 3.210938 1.234375 3.210938 C 1.605469 3.210938 1.976562 3.085938 2.222656 2.839844 C 2.46875 2.71875 2.71875 2.347656 2.964844 1.976562 C 3.582031 1.359375 3.582031 0.125 4.199219 -0.492188 C 5.3125 -1.605469 5.804688 -2.71875 5.929688 -4.074219 C 6.175781 -4.570312 6.296875 -5.3125 6.421875 -5.804688 C 6.546875 -6.421875 6.792969 -7.164062 7.410156 -7.535156 C 8.398438 -7.902344 8.769531 -8.890625 9.261719 -9.757812 C 10.003906 -10.746094 10.003906 -11.980469 10.746094 -12.722656 C 10.746094 -12.722656 10.621094 -12.96875 10.496094 -13.089844 C 10.003906 -13.214844 10.25 -13.585938 10.375 -13.832031 C 10.496094 -14.574219 11.113281 -14.203125 11.484375 -14.449219 C 12.101562 -15.933594 12.84375 -17.289062 13.460938 -18.523438 C 13.957031 -19.882812 14.449219 -21.117188 15.191406 -22.230469 C 15.933594 -23.464844 16.671875 -24.699219 17.042969 -26.058594 C 17.289062 -26.554688 17.414062 -27.046875 17.660156 -27.542969 C 18.773438 -29.023438 19.390625 -30.753906 20.253906 -32.480469 Z M 50.390625 -56.6875 C 50.511719 -54.21875 49.648438 -52.117188 49.894531 -49.523438 C 41.375 -48.535156 35.074219 -47.054688 27.046875 -44.335938 C 27.046875 -44.832031 26.921875 -44.953125 27.046875 -45.078125 C 28.035156 -47.054688 28.777344 -49.152344 30.011719 -50.882812 C 30.257812 -51.007812 30.257812 -51.007812 30.257812 -51.128906 C 30.382812 -52.363281 31 -53.351562 31.738281 -54.21875 C 32.480469 -55.207031 32.851562 -56.195312 33.714844 -57.183594 C 33.964844 -57.304688 34.085938 -57.550781 34.085938 -57.800781 C 34.210938 -58.046875 36.804688 -63.726562 36.804688 -63.726562 C 38.285156 -66.074219 39.890625 -68.421875 41.375 -70.890625 C 41.992188 -71.878906 42.609375 -72.988281 43.101562 -74.226562 C 43.84375 -75.953125 44.953125 -77.4375 46.3125 -78.792969 C 47.300781 -79.90625 48.289062 -81.265625 49.277344 -82.625 C 49.894531 -83.363281 50.511719 -84.351562 51.625 -84.847656 C 51.871094 -84.847656 51.996094 -85.09375 52.117188 -85.214844 L 54.464844 -87.5625 C 55.082031 -88.550781 56.195312 -89.046875 56.6875 -90.035156 C 57.183594 -90.898438 58.292969 -90.773438 59.035156 -91.269531 C 59.15625 -91.269531 59.28125 -90.898438 59.40625 -90.773438 L 59.40625 -90.402344 C 59.035156 -88.921875 58.664062 -87.441406 58.046875 -86.082031 C 55.082031 -80.152344 52.488281 -68.789062 51.378906 -62.492188 C 51.253906 -61.628906 51.007812 -60.761719 50.757812 -59.773438 C 50.757812 -58.910156 50.757812 -57.921875 50.390625 -57.058594 C 50.265625 -56.933594 50.265625 -56.8125 50.390625 -56.6875 Z M 52.488281 -56.6875 L 52.488281 -56.933594 L 52.734375 -56.933594 Z M 52.242188 -51.746094 L 51.996094 -51.625 L 52.117188 -51.871094 Z M 52.242188 -51.746094 "/></g></g></g><g fill="#04471c" fill-opacity="1"><g transform="translate(110.45332, 366.257858)"><g><path d="M 19.265625 -12.226562 C 19.390625 -12.351562 19.511719 -12.472656 19.636719 -12.597656 C 19.882812 -12.96875 19.882812 -13.707031 19.636719 -13.460938 C 19.511719 -13.339844 19.265625 -13.089844 19.144531 -12.84375 C 19.144531 -12.722656 19.265625 -12.472656 19.265625 -12.351562 C 17.90625 -12.101562 17.90625 -10.746094 17.289062 -10.375 C 17.042969 -10.375 16.917969 -10.25 16.917969 -10.128906 C 17.042969 -10.128906 17.167969 -10.25 17.289062 -10.25 C 17.167969 -10.128906 17.042969 -9.878906 16.917969 -9.757812 C 16.917969 -9.757812 16.917969 -9.878906 16.917969 -10.003906 L 16.550781 -9.632812 C 16.550781 -9.632812 16.550781 -9.507812 16.671875 -9.386719 C 15.191406 -7.164062 10.375 -1.605469 8.027344 -1.113281 C 7.65625 -0.617188 6.546875 -2.347656 5.804688 -2.347656 C 5.679688 -2.59375 5.679688 -2.839844 5.433594 -2.964844 C 4.816406 -4.074219 4.691406 -5.1875 4.941406 -6.296875 C 4.941406 -6.917969 4.941406 -7.65625 5.0625 -8.152344 C 5.1875 -9.757812 5.0625 -11.363281 5.679688 -12.96875 C 5.804688 -13.214844 5.804688 -13.460938 5.558594 -13.707031 C 5.433594 -13.957031 5.433594 -14.203125 5.558594 -14.449219 C 6.175781 -15.191406 6.175781 -16.425781 6.296875 -17.414062 C 6.546875 -18.523438 6.421875 -19.636719 7.164062 -20.5 C 6.917969 -21.738281 7.78125 -22.476562 8.027344 -23.710938 C 8.273438 -24.949219 9.140625 -28.527344 9.632812 -29.640625 C 11.609375 -33.839844 13.460938 -38.285156 14.328125 -42.855469 C 14.449219 -44.089844 13.585938 -45.695312 12.472656 -46.3125 C 12.226562 -46.3125 11.980469 -46.4375 11.734375 -46.4375 L 10.375 -46.4375 C 10.128906 -46.4375 9.878906 -46.3125 9.632812 -46.191406 C 8.398438 -44.214844 7.65625 -42.113281 6.917969 -39.890625 C 6.421875 -38.164062 5.929688 -36.308594 5.3125 -34.582031 C 5.0625 -33.714844 4.691406 -33.097656 4.445312 -32.234375 C 3.457031 -28.898438 2.59375 -25.566406 1.605469 -22.355469 C 1.359375 -20.871094 0.863281 -19.636719 0.742188 -18.402344 C 0.617188 -16.054688 0.246094 -13.707031 0 -11.363281 C -0.125 -9.632812 -0.246094 -7.902344 0.246094 -6.050781 C 0.371094 -5.804688 0.371094 -5.433594 0.492188 -5.0625 C 0.617188 -4.074219 1.113281 -3.210938 1.730469 -2.46875 C 2.46875 -1.605469 3.210938 -0.617188 3.953125 0.246094 C 4.570312 1.113281 5.433594 1.730469 6.546875 2.097656 C 6.917969 2.347656 7.410156 2.347656 7.902344 2.347656 C 10.003906 2.347656 12.84375 0.863281 14.203125 -0.988281 C 15.066406 -1.730469 14.820312 -1.976562 15.5625 -2.964844 C 16.300781 -3.703125 17.289062 -6.296875 16.917969 -7.535156 C 16.917969 -7.78125 16.796875 -8.027344 17.042969 -8.027344 C 17.289062 -7.902344 17.414062 -7.65625 17.660156 -7.535156 C 17.90625 -7.902344 17.539062 -8.398438 17.660156 -8.769531 C 17.785156 -9.261719 18.03125 -9.632812 18.277344 -10.128906 C 18.523438 -10.746094 19.144531 -11.484375 19.144531 -12.226562 Z M 12.84375 -56.070312 C 13.585938 -55.453125 14.574219 -55.207031 15.5625 -54.710938 C 16.054688 -54.957031 16.671875 -55.207031 17.289062 -55.453125 C 17.660156 -55.574219 17.785156 -55.945312 17.785156 -56.195312 C 18.15625 -57.429688 17.90625 -58.539062 18.402344 -59.652344 C 18.523438 -59.773438 18.402344 -59.898438 18.277344 -60.023438 C 18.03125 -60.269531 17.539062 -60.515625 17.167969 -60.515625 C 17.042969 -60.515625 16.917969 -60.515625 16.796875 -60.394531 C 15.683594 -59.652344 14.449219 -58.789062 13.460938 -57.921875 C 13.089844 -57.675781 12.84375 -57.304688 12.597656 -56.933594 C 12.472656 -56.6875 12.597656 -56.195312 12.84375 -56.070312 Z M 16.917969 -9.757812 C 16.917969 -9.632812 16.917969 -9.507812 16.917969 -9.507812 C 16.917969 -9.386719 16.796875 -9.386719 16.796875 -9.261719 C 16.796875 -9.507812 16.796875 -9.632812 16.917969 -9.757812 Z M 16.917969 -9.757812 "/></g></g></g><g fill="#04471c" fill-opacity="1"><g transform="translate(129.224125, 366.257858)"><g><path d="M 14.945312 -31.988281 C 15.191406 -31.988281 15.3125 -32.234375 15.4375 -32.359375 C 16.179688 -32.605469 16.179688 -33.34375 16.671875 -33.714844 C 18.03125 -34.582031 19.019531 -35.816406 20.132812 -36.925781 C 21.859375 -38.65625 23.710938 -40.015625 25.6875 -41.25 C 25.6875 -40.507812 25.6875 -40.507812 25.566406 -40.386719 C 24.824219 -40.015625 24.082031 -39.519531 23.710938 -38.65625 C 22.847656 -38.53125 22.722656 -37.542969 21.984375 -37.175781 C 21.242188 -36.679688 20.5 -36.0625 20.132812 -35.074219 C 20.007812 -34.953125 19.882812 -34.582031 19.636719 -34.582031 C 18.773438 -34.332031 18.523438 -33.34375 17.785156 -32.851562 C 16.917969 -32.480469 16.671875 -31.492188 16.179688 -30.875 L 13.585938 -27.910156 C 12.84375 -27.046875 12.101562 -26.058594 11.734375 -24.824219 C 11.609375 -24.207031 11.363281 -23.710938 10.867188 -23.34375 C 10.496094 -22.972656 10.25 -22.601562 9.878906 -22.230469 C 10.375 -22.105469 10.746094 -21.984375 10.992188 -21.984375 C 11.484375 -21.984375 11.855469 -22.230469 11.980469 -22.722656 C 12.351562 -24.328125 13.707031 -25.316406 14.695312 -26.675781 C 15.191406 -27.171875 15.5625 -27.664062 16.054688 -28.28125 C 16.917969 -29.515625 17.785156 -30.753906 18.894531 -31.738281 C 19.636719 -32.234375 20.132812 -32.976562 20.625 -33.59375 C 20.996094 -34.457031 21.613281 -35.074219 22.230469 -35.570312 C 22.972656 -35.9375 23.21875 -36.558594 23.464844 -37.175781 C 23.960938 -37.296875 24.328125 -37.667969 24.699219 -37.667969 C 24.824219 -37.667969 25.070312 -37.542969 25.195312 -37.421875 C 25.070312 -37.175781 25.070312 -36.804688 24.949219 -36.558594 C 24.699219 -35.691406 24.578125 -34.703125 24.207031 -33.839844 C 24.082031 -33.34375 24.578125 -33.46875 24.699219 -33.222656 C 24.824219 -33.097656 24.824219 -32.976562 24.949219 -32.851562 C 24.824219 -32.851562 24.453125 -32.851562 24.699219 -32.605469 L 24.949219 -32.851562 C 25.195312 -32.976562 25.441406 -33.222656 25.316406 -33.34375 C 24.949219 -34.085938 24.824219 -34.582031 25.8125 -34.953125 C 26.304688 -35.199219 26.554688 -35.691406 26.921875 -36.1875 C 27.292969 -37.050781 27.789062 -37.792969 28.28125 -38.65625 C 28.777344 -39.398438 29.148438 -40.261719 29.640625 -41.003906 C 29.269531 -42.363281 28.28125 -43.101562 27.292969 -43.96875 C 27.046875 -44.214844 26.800781 -44.335938 26.429688 -44.335938 C 26.058594 -44.335938 25.566406 -44.214844 25.566406 -43.84375 C 25.6875 -43.472656 25.566406 -43.347656 25.441406 -43.347656 C 25.195312 -43.347656 25.070312 -43.347656 24.949219 -43.347656 C 24.949219 -43.597656 24.699219 -43.71875 24.578125 -43.71875 C 23.710938 -43.472656 22.847656 -43.226562 22.601562 -42.363281 C 22.355469 -42.363281 22.105469 -42.363281 21.859375 -42.238281 C 20.75 -41.375 19.511719 -40.386719 18.773438 -39.027344 L 19.761719 -39.027344 C 18.648438 -37.542969 17.414062 -36.308594 15.933594 -35.320312 L 15.933594 -36.1875 C 14.820312 -35.570312 14.078125 -34.457031 13.214844 -33.59375 C 13.089844 -33.34375 13.089844 -33.097656 13.089844 -32.851562 C 12.84375 -32.851562 12.597656 -32.726562 12.597656 -32.359375 L 12.597656 -32.480469 C 12.84375 -32.480469 13.089844 -32.605469 13.089844 -32.851562 C 13.339844 -33.097656 13.707031 -33.222656 14.078125 -33.34375 C 13.957031 -33.097656 13.957031 -32.726562 13.832031 -32.480469 C 12.96875 -31.617188 12.226562 -30.503906 11.484375 -29.394531 C 11.238281 -28.898438 10.867188 -28.28125 10.25 -28.160156 L 10.25 -29.023438 C 10.25 -29.023438 10.375 -29.148438 10.375 -29.148438 C 10.25 -29.148438 10.25 -29.148438 10.25 -29.148438 L 9.507812 -28.652344 C 9.261719 -28.40625 9.140625 -28.28125 8.890625 -28.160156 C 8.769531 -28.652344 8.890625 -29.023438 9.015625 -29.515625 C 10.128906 -31.988281 10.992188 -34.582031 11.855469 -37.175781 C 12.226562 -37.914062 12.472656 -38.65625 12.84375 -39.398438 C 13.214844 -40.015625 13.214844 -40.753906 13.089844 -41.375 C 12.96875 -41.992188 12.351562 -42.238281 11.855469 -42.484375 C 10.992188 -43.101562 10.128906 -43.84375 9.261719 -44.460938 C 9.015625 -44.585938 8.644531 -44.460938 8.523438 -44.214844 C 8.398438 -44.089844 8.398438 -43.96875 8.398438 -43.96875 C 7.65625 -41.496094 6.667969 -39.027344 5.804688 -36.679688 C 5.3125 -35.570312 4.816406 -34.332031 4.691406 -33.097656 C 4.445312 -31.988281 4.199219 -31 3.703125 -30.011719 C 2.839844 -28.035156 2.59375 -25.933594 1.851562 -23.960938 C 1.605469 -23.464844 1.605469 -22.847656 1.730469 -22.601562 C 2.222656 -21.738281 1.851562 -21.117188 1.605469 -20.5 C 1.113281 -19.511719 0.742188 -18.402344 0.492188 -17.167969 L -0.617188 -12.722656 C -0.742188 -11.855469 -0.617188 -11.113281 -0.988281 -10.375 C -1.359375 -9.632812 -0.988281 -8.644531 -1.480469 -7.902344 C -1.605469 -6.421875 -2.347656 -4.941406 -2.097656 -3.457031 C -1.976562 -2.59375 -2.097656 -1.851562 -2.46875 -1.113281 L -2.222656 -0.863281 C -1.851562 -1.113281 -1.851562 -1.359375 -1.480469 -1.359375 C -1.480469 -1.359375 -1.359375 -1.234375 -1.234375 -1.234375 C -1.234375 -0.742188 -1.234375 0 -1.113281 0.617188 C -0.988281 1.480469 -0.371094 1.976562 0.371094 2.222656 C 0.742188 2.222656 0.988281 2.097656 1.234375 1.851562 C 1.730469 0.742188 1.976562 -0.371094 2.097656 -1.605469 C 2.222656 -2.71875 2.46875 -3.703125 2.839844 -4.816406 C 3.457031 -6.296875 3.828125 -7.902344 4.691406 -9.261719 C 5.433594 -10.496094 5.679688 -11.855469 6.546875 -12.84375 C 7.902344 -14.449219 8.523438 -16.550781 9.261719 -18.523438 C 9.632812 -19.265625 9.878906 -20.007812 10.128906 -20.75 C 10.128906 -20.871094 9.878906 -21.117188 9.632812 -21.242188 C 9.632812 -21.367188 9.386719 -21.242188 9.261719 -21.242188 C 9.015625 -20.75 8.644531 -20.253906 8.398438 -19.761719 C 8.152344 -19.144531 7.902344 -18.402344 7.410156 -17.90625 C 6.792969 -17.414062 6.296875 -16.550781 5.929688 -15.808594 C 5.804688 -15.3125 5.558594 -14.945312 5.0625 -14.820312 C 5.1875 -15.808594 5.558594 -16.796875 5.929688 -17.660156 C 6.421875 -19.144531 6.917969 -20.5 8.152344 -21.488281 C 8.273438 -21.738281 8.644531 -21.984375 8.644531 -22.230469 C 9.015625 -23.835938 10.003906 -24.949219 10.992188 -26.304688 C 11.238281 -26.554688 10.621094 -27.171875 11.113281 -27.292969 C 11.980469 -27.542969 11.734375 -28.28125 12.101562 -28.777344 C 12.597656 -29.515625 13.089844 -30.132812 13.585938 -31 C 13.832031 -31.492188 14.328125 -31.863281 14.945312 -31.988281 Z M 22.601562 -40.507812 C 22.476562 -40.261719 22.355469 -40.015625 22.105469 -40.015625 L 22.105469 -40.507812 L 21.117188 -40.507812 C 21.242188 -40.878906 21.613281 -41.125 21.984375 -41.496094 C 22.230469 -41.742188 22.476562 -41.992188 22.601562 -42.363281 L 23.464844 -42.363281 C 23.21875 -41.867188 22.847656 -41.375 22.601562 -40.878906 C 22.722656 -40.878906 22.847656 -40.753906 22.972656 -40.753906 C 22.847656 -40.632812 22.722656 -40.507812 22.601562 -40.507812 Z M 7.65625 -24.207031 C 7.65625 -24.207031 7.78125 -24.082031 7.78125 -23.960938 C 7.78125 -23.589844 7.535156 -23.34375 7.285156 -23.09375 C 7.164062 -23.09375 7.164062 -23.09375 7.039062 -23.21875 L 7.039062 -23.34375 C 7.039062 -23.710938 7.164062 -23.835938 7.410156 -24.082031 C 7.535156 -24.082031 7.535156 -24.207031 7.65625 -24.207031 Z M 22.601562 -41.003906 C 22.355469 -40.878906 22.105469 -40.753906 22.105469 -40.507812 L 22.601562 -40.507812 Z M 4.816406 -14.574219 C 4.570312 -14.820312 4.941406 -14.820312 5.0625 -14.820312 C 4.941406 -14.820312 4.941406 -14.695312 4.816406 -14.574219 Z M 11.484375 -30.875 L 11.363281 -30.753906 L 11.484375 -30.753906 Z M 14.078125 -33.34375 C 14.078125 -33.34375 13.957031 -33.34375 13.957031 -33.34375 Z M 14.078125 -33.34375 "/></g></g></g><g fill="#04471c" fill-opacity="1"><g transform="translate(154.786999, 366.257858)"><g><path d="M 61.628906 -66.9375 C 60.269531 -64.59375 58.539062 -62.617188 56.441406 -61.257812 L 56.070312 -61.011719 C 55.328125 -60.515625 54.835938 -60.023438 54.21875 -59.527344 C 52.734375 -58.167969 50.882812 -57.058594 48.535156 -55.945312 L 48.289062 -55.824219 C 46.3125 -54.835938 44.832031 -54.21875 42.609375 -54.21875 C 42.113281 -54.339844 41.742188 -53.96875 41.25 -53.847656 L 41.003906 -53.722656 C 40.632812 -53.351562 40.386719 -52.984375 40.136719 -52.613281 C 40.136719 -51.871094 40.261719 -51.253906 40.632812 -50.882812 L 40.632812 -50.757812 C 40.753906 -50.636719 40.878906 -50.511719 41.003906 -50.390625 C 41.496094 -49.773438 42.238281 -49.152344 43.226562 -49.152344 C 43.71875 -49.152344 44.089844 -49.277344 44.585938 -49.523438 C 45.324219 -49.894531 46.066406 -50.265625 46.929688 -50.511719 L 47.179688 -50.636719 C 50.019531 -51.996094 52.363281 -53.351562 54.710938 -55.207031 L 55.574219 -55.945312 C 57.800781 -57.800781 60.144531 -59.773438 62.121094 -62.121094 C 63.851562 -64.222656 64.714844 -66.074219 65.210938 -68.171875 C 65.949219 -70.148438 66.566406 -72.496094 65.828125 -74.964844 C 65.828125 -75.214844 65.828125 -75.460938 65.828125 -75.707031 C 65.949219 -76.820312 65.703125 -77.929688 65.578125 -79.042969 L 65.578125 -79.289062 C 65.457031 -79.660156 65.210938 -80.152344 64.960938 -80.648438 C 64.839844 -81.140625 64.59375 -81.511719 64.46875 -81.882812 C 63.972656 -84.597656 61.503906 -86.820312 59.527344 -88.550781 L 59.15625 -88.796875 C 57.304688 -91.515625 49.402344 -92.257812 46.3125 -92.257812 C 39.769531 -92.257812 33.46875 -88.058594 28.898438 -83.734375 L 28.28125 -83.117188 C 27.292969 -82.375 26.554688 -81.511719 25.8125 -80.523438 L 25.566406 -80.152344 C 25.070312 -79.535156 24.578125 -78.917969 23.960938 -78.175781 C 23.464844 -77.804688 22.972656 -77.066406 22.601562 -76.570312 C 22.476562 -76.199219 22.230469 -75.953125 22.105469 -75.707031 C 20.75 -73.730469 19.390625 -71.753906 18.523438 -69.285156 C 18.402344 -68.789062 18.277344 -68.421875 18.03125 -68.171875 C 17.167969 -65.949219 16.550781 -63.851562 16.425781 -61.378906 C 16.425781 -61.257812 16.425781 -61.011719 16.300781 -60.886719 C 15.933594 -59.527344 16.054688 -58.417969 16.054688 -57.429688 C 16.425781 -55.945312 16.550781 -54.957031 17.042969 -53.96875 C 16.917969 -53.847656 16.917969 -53.722656 17.042969 -53.476562 C 17.289062 -53.230469 17.289062 -53.105469 17.167969 -52.859375 C 17.042969 -52.734375 17.042969 -52.613281 17.042969 -52.613281 C 17.539062 -50.757812 18.03125 -49.03125 19.019531 -47.179688 C 20.007812 -45.695312 21.117188 -44.335938 22.355469 -42.980469 C 23.09375 -42.113281 23.835938 -41.125 24.578125 -40.261719 C 24.699219 -40.015625 24.949219 -40.015625 25.195312 -39.890625 C 25.441406 -39.644531 25.6875 -39.519531 26.058594 -39.398438 C 26.800781 -38.902344 27.417969 -38.53125 28.035156 -37.667969 C 28.035156 -37.050781 28.898438 -36.558594 29.640625 -36.433594 C 30.503906 -36.308594 33.46875 -34.210938 34.457031 -33.46875 C 35.9375 -32.726562 37.175781 -31.863281 38.65625 -31.246094 C 39.148438 -31.121094 39.644531 -30.628906 40.261719 -30.382812 C 40.753906 -30.011719 41.375 -29.515625 42.113281 -29.394531 C 44.089844 -28.777344 46.191406 -27.417969 48.164062 -26.304688 C 49.277344 -25.566406 50.390625 -24.824219 51.5 -24.328125 C 51.996094 -24.082031 52.363281 -23.835938 52.734375 -23.464844 C 53.105469 -23.21875 53.847656 -22.847656 54.589844 -22.722656 C 55.082031 -22.355469 55.574219 -21.984375 55.945312 -21.367188 C 56.195312 -20.996094 56.441406 -20.625 56.933594 -20.253906 C 57.058594 -20.007812 57.183594 -19.882812 57.304688 -19.761719 C 57.921875 -19.265625 58.664062 -18.402344 59.15625 -17.660156 L 59.652344 -17.167969 C 59.773438 -16.917969 59.652344 -16.550781 59.652344 -16.300781 C 59.898438 -14.695312 59.652344 -13.585938 59.035156 -12.597656 C 57.800781 -10.375 56.441406 -8.769531 54.835938 -7.285156 C 47.425781 -1.359375 37.421875 1.480469 28.160156 2.964844 C 26.800781 3.335938 25.441406 3.335938 24.082031 3.335938 C 23.835938 3.335938 23.464844 3.335938 23.21875 3.457031 C 22.601562 3.828125 22.230469 3.953125 21.613281 3.953125 C 21.367188 3.953125 21.117188 3.828125 20.871094 3.828125 C 20.75 3.828125 20.5 3.828125 20.378906 3.828125 C 19.882812 3.828125 19.511719 3.828125 19.144531 3.828125 C 18.648438 3.828125 18.277344 3.953125 17.785156 3.953125 C 16.917969 3.953125 16.179688 3.703125 15.3125 3.335938 C 14.078125 3.335938 12.96875 3.210938 11.484375 2.71875 C 10.746094 2.347656 10.128906 2.222656 9.757812 2.097656 C 7.78125 1.730469 5.0625 0.492188 4.941406 -1.480469 C 4.199219 -3.953125 7.410156 -8.027344 9.261719 -9.878906 C 11.113281 -11.484375 13.089844 -12.84375 14.574219 -13.832031 L 14.820312 -13.957031 C 17.167969 -15.3125 19.761719 -17.042969 22.230469 -18.15625 C 23.21875 -18.523438 23.960938 -18.894531 24.949219 -19.511719 C 25.933594 -19.882812 26.921875 -20.5 27.910156 -20.871094 C 31.246094 -22.476562 34.582031 -23.835938 37.914062 -24.949219 C 38.164062 -25.195312 38.285156 -25.195312 38.53125 -25.195312 C 38.902344 -25.316406 39.519531 -25.441406 40.136719 -26.058594 C 40.261719 -26.058594 40.386719 -26.058594 40.753906 -26.304688 C 40.753906 -26.183594 40.878906 -26.183594 41.003906 -26.183594 C 41.25 -26.183594 41.375 -26.304688 41.496094 -26.675781 C 41.496094 -26.921875 41.25 -27.292969 41.003906 -27.292969 C 40.878906 -27.292969 40.753906 -27.171875 40.507812 -27.171875 L 40.386719 -27.171875 C 40.261719 -27.171875 39.890625 -27.046875 39.769531 -26.800781 C 38.410156 -26.800781 37.667969 -26.800781 36.308594 -26.304688 C 36.0625 -26.304688 35.816406 -26.058594 35.570312 -26.058594 C 34.085938 -25.6875 32.726562 -24.949219 31.246094 -24.453125 C 30.753906 -24.082031 30.257812 -23.835938 29.640625 -23.464844 C 28.160156 -22.847656 27.046875 -22.476562 25.441406 -22.476562 C 24.207031 -22.476562 23.21875 -22.476562 21.859375 -21.738281 C 21.738281 -21.613281 21.613281 -21.613281 21.367188 -21.613281 C 21.242188 -21.367188 20.996094 -21.367188 20.996094 -21.367188 C 20.5 -21.117188 19.761719 -20.871094 19.144531 -20.75 C 17.785156 -20.007812 16.300781 -19.511719 14.945312 -18.648438 C 14.574219 -18.523438 14.449219 -18.277344 14.203125 -18.15625 C 13.339844 -17.414062 12.351562 -16.917969 10.992188 -16.796875 C 10.992188 -16.550781 10.746094 -16.179688 10.496094 -16.179688 C 9.507812 -15.683594 8.523438 -14.945312 7.78125 -14.078125 C 7.65625 -13.832031 7.285156 -13.585938 7.039062 -13.339844 C 5.929688 -12.351562 4.941406 -11.238281 4.199219 -10.128906 C 3.703125 -9.632812 3.335938 -9.015625 2.71875 -8.398438 C 2.46875 -8.027344 2.347656 -7.78125 2.222656 -7.535156 L 2.097656 -7.410156 C 2.097656 -7.285156 1.976562 -6.917969 1.851562 -6.667969 C 0.863281 -4.570312 -0.492188 -1.976562 0.125 0.246094 C 1.359375 4.199219 4.691406 6.175781 7.285156 7.410156 C 7.410156 7.410156 7.410156 7.535156 7.410156 7.410156 C 8.152344 7.410156 8.890625 7.65625 9.632812 7.78125 C 9.757812 7.902344 9.757812 8.027344 10.003906 8.027344 C 11.980469 8.644531 13.957031 8.890625 16.054688 8.890625 C 19.390625 8.890625 22.847656 8.152344 26.058594 6.792969 C 26.183594 6.667969 26.429688 6.667969 26.675781 6.667969 C 26.675781 6.792969 26.800781 6.792969 26.800781 7.039062 C 27.171875 7.410156 27.171875 7.410156 27.664062 7.410156 C 27.789062 7.164062 27.910156 7.039062 28.035156 6.792969 C 28.527344 7.039062 28.898438 7.164062 29.269531 7.164062 C 29.640625 7.164062 30.011719 7.039062 30.382812 6.667969 C 30.628906 6.421875 30.875 6.296875 31.121094 6.175781 C 31.492188 5.804688 31.863281 5.558594 32.109375 5.433594 C 32.480469 5.1875 33.097656 5.1875 33.839844 5.1875 C 34.332031 5.1875 34.953125 5.1875 35.445312 4.941406 C 36.804688 4.445312 38.410156 4.074219 40.136719 3.457031 C 43.472656 2.59375 46.929688 1.480469 49.894531 -0.246094 C 50.390625 -0.371094 50.757812 -0.492188 51.128906 -0.742188 C 52.859375 -1.730469 55.082031 -2.964844 55.945312 -4.445312 C 56.8125 -4.445312 57.429688 -5.3125 57.800781 -5.804688 C 57.921875 -6.050781 58.167969 -6.175781 58.292969 -6.296875 C 59.15625 -7.164062 59.527344 -7.902344 60.023438 -9.140625 L 60.144531 -9.386719 C 60.394531 -10.003906 60.515625 -10.496094 61.011719 -10.867188 C 61.503906 -11.113281 61.628906 -11.734375 61.75 -12.226562 L 61.75 -12.351562 C 61.875 -12.84375 61.875 -13.339844 61.875 -13.707031 C 61.875 -14.574219 61.75 -15.5625 62 -16.179688 C 62.121094 -16.550781 62.367188 -17.042969 62.246094 -17.414062 C 62 -19.390625 61.628906 -21.738281 60.394531 -23.464844 C 59.28125 -25.316406 58.046875 -26.304688 56.933594 -27.046875 C 56.8125 -27.171875 56.5625 -27.417969 56.316406 -27.542969 C 55.945312 -27.789062 55.699219 -27.910156 55.453125 -28.28125 C 53.476562 -29.886719 51.378906 -31.121094 48.90625 -32.480469 C 47.796875 -32.976562 46.683594 -33.714844 45.574219 -34.210938 C 44.335938 -34.828125 43.347656 -35.320312 41.992188 -36.0625 C 40.878906 -36.679688 39.644531 -37.296875 38.65625 -37.914062 C 36.804688 -38.78125 35.074219 -39.769531 33.34375 -40.878906 C 32.851562 -41.25 32.359375 -41.496094 32.109375 -41.867188 C 31.988281 -41.992188 31.738281 -42.113281 31.617188 -42.238281 C 31.121094 -42.609375 30.503906 -42.980469 30.011719 -43.347656 C 29.394531 -43.84375 28.777344 -44.214844 28.28125 -44.707031 C 27.542969 -45.078125 27.046875 -45.695312 26.429688 -46.191406 C 25.8125 -46.808594 25.195312 -47.179688 24.824219 -47.917969 C 23.464844 -48.660156 22.601562 -49.894531 22.105469 -50.882812 C 20.75 -52.859375 20.007812 -54.835938 19.636719 -56.6875 C 19.019531 -60.394531 19.265625 -62.738281 20.378906 -66.445312 C 20.996094 -68.296875 21.738281 -69.65625 22.601562 -71.261719 L 22.847656 -71.878906 C 24.578125 -75.214844 30.257812 -82.253906 33.964844 -84.105469 C 35.074219 -84.722656 36.308594 -85.339844 37.296875 -86.203125 C 37.296875 -86.203125 37.296875 -86.203125 37.542969 -86.328125 C 38.410156 -86.328125 39.273438 -86.820312 39.890625 -87.191406 C 41.496094 -87.933594 43.226562 -88.429688 44.953125 -88.675781 C 45.574219 -88.796875 46.066406 -88.796875 46.808594 -88.921875 C 46.929688 -89.046875 47.054688 -89.046875 47.179688 -89.046875 C 47.300781 -89.046875 47.546875 -89.046875 47.796875 -88.921875 C 48.164062 -88.921875 48.414062 -88.796875 48.785156 -88.796875 C 50.019531 -88.550781 51.253906 -88.429688 52.363281 -87.933594 C 55.574219 -86.945312 57.058594 -86.203125 59.898438 -83.609375 C 61.75 -81.636719 62.863281 -79.535156 63.234375 -77.1875 L 63.355469 -76.820312 C 63.605469 -75.707031 63.972656 -74.472656 63.605469 -73.359375 C 63.355469 -70.765625 62.863281 -68.789062 61.628906 -66.9375 Z M 57.183594 -22.972656 C 57.921875 -22.476562 58.539062 -21.984375 59.035156 -21.242188 C 58.167969 -21.738281 57.675781 -22.105469 57.183594 -22.972656 Z M 40.261719 -34.332031 C 40.386719 -34.332031 40.507812 -34.332031 40.753906 -34.085938 L 40.753906 -33.964844 C 40.878906 -33.839844 41.003906 -33.839844 41.125 -33.964844 C 42.238281 -33.097656 43.71875 -32.480469 44.953125 -31.371094 C 43.71875 -31.738281 42.484375 -32.359375 41.496094 -32.726562 C 41.621094 -32.726562 41.621094 -32.851562 41.496094 -32.851562 C 41.496094 -32.976562 41.496094 -33.097656 41.375 -33.222656 L 41.25 -33.222656 C 41.25 -33.222656 41.25 -33.46875 41.125 -33.46875 C 41.003906 -33.46875 40.878906 -33.46875 40.878906 -33.46875 C 40.753906 -33.46875 40.753906 -33.59375 40.753906 -33.46875 C 40.507812 -33.46875 40.015625 -33.714844 39.398438 -33.964844 C 39.519531 -34.085938 39.519531 -34.210938 39.519531 -34.332031 C 39.519531 -34.582031 39.519531 -34.582031 39.519531 -34.703125 C 39.027344 -35.074219 38.78125 -35.074219 38.410156 -35.074219 C 38.285156 -35.199219 38.285156 -35.320312 38.039062 -35.320312 C 37.792969 -35.445312 37.667969 -35.199219 37.667969 -35.199219 C 34.953125 -36.558594 31.863281 -38.78125 30.011719 -40.261719 C 31.617188 -39.519531 34.457031 -38.164062 39.644531 -34.828125 C 39.644531 -34.703125 39.769531 -34.703125 39.769531 -34.582031 L 39.890625 -34.582031 C 40.015625 -34.332031 40.136719 -34.332031 40.261719 -34.332031 Z M 48.414062 -29.515625 C 51.007812 -28.777344 53.230469 -26.675781 55.453125 -24.824219 C 55.574219 -24.699219 55.699219 -24.578125 55.824219 -24.453125 L 55.574219 -24.453125 C 54.835938 -24.699219 53.96875 -24.949219 53.230469 -25.316406 C 53.105469 -25.566406 52.488281 -25.8125 52.117188 -26.058594 C 51.128906 -27.542969 49.894531 -28.40625 48.660156 -29.148438 C 48.535156 -29.269531 48.535156 -29.394531 48.414062 -29.515625 Z M 26.304688 4.691406 C 26.304688 4.941406 26.304688 4.941406 26.183594 4.941406 C 26.183594 4.941406 26.183594 4.691406 26.304688 4.691406 Z M 42.484375 -26.800781 C 42.609375 -26.800781 42.730469 -26.921875 42.855469 -27.046875 C 42.980469 -27.046875 43.101562 -27.171875 43.101562 -27.417969 C 43.101562 -27.417969 42.980469 -27.542969 42.980469 -27.542969 L 42.855469 -27.664062 C 42.730469 -27.664062 42.609375 -27.664062 42.484375 -27.664062 C 42.363281 -27.789062 42.238281 -27.664062 42.113281 -27.542969 C 42.113281 -27.417969 41.992188 -27.417969 41.992188 -27.046875 C 42.113281 -26.921875 42.238281 -26.800781 42.484375 -26.800781 Z M 42.484375 -26.800781 "/></g></g></g><g fill="#04471c" fill-opacity="1"><g transform="translate(223.201632, 366.257858)"><g><path d="M 33.714844 -17.167969 C 34.582031 -18.15625 35.074219 -19.265625 35.691406 -20.5 C 36.308594 -20.75 36.433594 -21.613281 36.804688 -22.105469 C 36.804688 -22.230469 36.925781 -22.230469 37.050781 -22.230469 C 37.175781 -22.230469 37.421875 -22.105469 37.542969 -21.984375 C 37.914062 -21.613281 38.039062 -21.242188 37.914062 -20.871094 C 37.792969 -20.75 37.667969 -20.75 37.542969 -20.871094 C 37.421875 -20.996094 37.296875 -21.117188 37.175781 -21.367188 C 37.050781 -20.996094 37.050781 -20.625 36.925781 -20.253906 C 36.679688 -19.882812 36.804688 -19.390625 37.050781 -19.019531 C 37.175781 -18.894531 36.925781 -18.773438 36.804688 -18.648438 C 36.433594 -18.523438 36.433594 -18.277344 36.679688 -17.90625 C 37.050781 -17.414062 37.050781 -16.917969 36.558594 -16.550781 C 35.691406 -16.054688 35.320312 -15.3125 35.570312 -14.328125 C 35.691406 -13.585938 35.691406 -12.96875 35.445312 -12.351562 C 35.320312 -12.101562 35.445312 -11.609375 35.691406 -11.484375 C 36.0625 -10.867188 35.9375 -10.496094 35.570312 -10.003906 C 35.199219 -9.507812 35.320312 -9.507812 35.816406 -8.890625 C 36.0625 -8.769531 36.308594 -8.523438 36.1875 -8.398438 C 35.691406 -7.410156 36.308594 -6.421875 35.9375 -5.433594 C 35.691406 -4.691406 35.816406 -3.703125 36.679688 -3.085938 C 37.175781 -2.71875 37.296875 -2.222656 37.296875 -1.730469 C 37.296875 -0.988281 37.792969 -0.492188 38.410156 0 C 39.273438 0.863281 40.507812 1.480469 41.25 2.46875 C 41.496094 2.71875 41.742188 2.839844 42.113281 2.839844 C 42.238281 2.839844 42.484375 2.71875 42.730469 2.71875 C 43.84375 2.59375 44.832031 2.46875 45.574219 1.851562 C 46.683594 0.863281 47.796875 0.246094 49.402344 -0.371094 C 49.648438 -0.617188 49.402344 -0.371094 49.402344 -0.617188 C 49.402344 -0.742188 49.152344 -0.988281 49.03125 -0.988281 C 48.289062 -0.617188 47.425781 -0.246094 46.683594 0.246094 C 45.574219 0.742188 44.460938 0.863281 43.226562 0.863281 C 42.730469 0.742188 42.363281 0.617188 42.113281 0.246094 C 41.375 -0.988281 41.125 -2.46875 40.632812 -3.828125 C 40.878906 -4.691406 40.632812 -5.558594 40.507812 -6.546875 C 40.261719 -7.535156 40.632812 -8.523438 40.507812 -9.507812 C 40.386719 -10.496094 40.753906 -11.363281 40.878906 -12.351562 C 40.878906 -13.339844 41.003906 -14.328125 41.25 -15.191406 C 41.742188 -17.167969 42.730469 -18.894531 42.855469 -20.996094 C 43.347656 -21.859375 43.597656 -22.722656 43.84375 -23.710938 C 44.089844 -24.949219 44.335938 -26.183594 44.707031 -27.292969 C 45.449219 -29.765625 46.3125 -32.234375 47.054688 -34.703125 C 47.917969 -36.925781 48.535156 -39.273438 48.90625 -41.621094 C 49.03125 -41.867188 49.03125 -42.113281 48.90625 -42.238281 C 48.289062 -43.597656 46.808594 -44.707031 45.449219 -44.832031 C 44.585938 -44.832031 44.214844 -44.832031 43.472656 -44.335938 C 42.980469 -43.96875 43.101562 -43.472656 42.980469 -43.101562 C 42.855469 -42.730469 42.855469 -42.363281 42.730469 -41.992188 C 42.113281 -39.398438 41.496094 -36.804688 40.015625 -34.582031 C 39.769531 -34.332031 39.644531 -34.085938 39.519531 -33.839844 C 39.027344 -32.726562 38.410156 -31.738281 38.53125 -30.503906 C 38.65625 -30.257812 38.53125 -30.011719 38.285156 -29.886719 C 37.792969 -29.765625 37.667969 -29.394531 37.421875 -29.023438 C 36.308594 -27.542969 35.9375 -25.6875 34.703125 -24.328125 C 33.839844 -22.355469 32.726562 -20.5 31.492188 -18.773438 C 29.640625 -15.3125 27.417969 -11.980469 24.699219 -9.140625 C 24.328125 -8.644531 22.355469 -7.039062 21.738281 -7.039062 C 21.367188 -7.039062 20.871094 -7.164062 20.75 -7.535156 C 20.007812 -8.769531 19.265625 -10.003906 19.019531 -11.363281 C 18.773438 -13.339844 18.277344 -15.3125 18.648438 -17.289062 C 18.773438 -18.15625 18.773438 -19.144531 18.773438 -20.007812 C 18.773438 -20.996094 19.144531 -21.859375 18.894531 -22.972656 C 18.773438 -23.960938 19.761719 -24.453125 19.636719 -25.441406 C 19.636719 -25.8125 19.882812 -26.058594 19.761719 -26.304688 C 19.761719 -26.304688 20.5 -30.257812 20.625 -30.503906 C 20.75 -31.492188 20.996094 -32.480469 21.242188 -33.59375 C 21.738281 -35.074219 21.488281 -36.679688 22.476562 -38.039062 L 22.476562 -38.410156 C 22.355469 -39.148438 22.601562 -39.769531 22.722656 -40.507812 C 23.09375 -41.867188 22.972656 -43.101562 22.476562 -44.460938 C 21.984375 -44.832031 21.488281 -45.078125 21.117188 -45.324219 C 20.625 -45.574219 20.132812 -45.695312 19.761719 -45.695312 C 19.144531 -45.695312 18.523438 -45.449219 18.15625 -44.953125 C 16.671875 -42.363281 15.5625 -39.890625 14.449219 -37.175781 C 13.339844 -35.199219 12.351562 -33.34375 11.484375 -31.246094 C 11.113281 -30.628906 10.867188 -30.011719 10.496094 -29.269531 C 10.003906 -27.910156 9.015625 -26.800781 8.769531 -25.316406 C 8.769531 -24.824219 7.410156 -21.984375 6.667969 -21.613281 C 6.421875 -21.859375 6.546875 -22.105469 6.546875 -22.230469 C 6.792969 -23.21875 7.285156 -24.207031 7.285156 -25.316406 C 7.410156 -26.304688 7.65625 -27.292969 7.902344 -28.40625 C 8.152344 -29.394531 8.273438 -30.382812 8.398438 -31.492188 C 8.523438 -32.359375 8.644531 -33.222656 8.890625 -34.085938 C 9.386719 -35.445312 9.507812 -36.804688 9.878906 -38.164062 C 10.25 -39.890625 10.25 -41.621094 10.496094 -43.347656 L 10.496094 -43.96875 C 10.128906 -44.585938 9.878906 -45.203125 9.507812 -45.695312 C 9.015625 -46.4375 8.398438 -46.929688 7.65625 -46.929688 C 6.667969 -46.929688 5.558594 -46.191406 5.433594 -45.203125 C 5.1875 -44.089844 4.816406 -42.980469 4.691406 -41.742188 C 4.199219 -39.273438 3.953125 -36.925781 3.457031 -34.457031 C 3.210938 -33.097656 2.964844 -31.863281 3.335938 -30.382812 C 3.335938 -30.132812 3.457031 -29.765625 3.210938 -29.515625 C 2.46875 -28.527344 2.097656 -27.292969 2.347656 -25.933594 L 2.347656 -25.6875 C 1.234375 -24.824219 -1.976562 -12.472656 -2.222656 -10.746094 C -2.71875 -10.496094 -2.71875 -9.878906 -2.839844 -9.386719 C -3.703125 -7.65625 -4.074219 -5.558594 -4.570312 -3.703125 C -4.941406 -2.59375 -4.816406 -2.097656 -3.828125 -1.480469 C -3.210938 -1.113281 -2.839844 -0.742188 -2.46875 -0.125 L -1.605469 0.742188 C -1.359375 0.863281 -1.113281 0.863281 -0.863281 0.863281 C -0.492188 0.863281 -0.246094 0.863281 0 0.617188 C 0 0.492188 0.125 0.371094 0.246094 0.246094 C 0.617188 -0.863281 0.988281 -1.976562 1.359375 -3.210938 C 1.605469 -4.445312 2.347656 -5.433594 2.347656 -6.792969 C 2.46875 -6.917969 2.59375 -7.164062 2.71875 -7.285156 C 3.582031 -8.644531 4.445312 -9.757812 5.0625 -11.238281 C 5.433594 -12.101562 5.929688 -12.84375 6.421875 -13.585938 C 7.039062 -14.574219 7.78125 -15.683594 8.152344 -16.796875 C 8.769531 -18.648438 9.507812 -20.5 10.375 -22.355469 C 10.496094 -22.355469 10.496094 -22.601562 10.496094 -22.722656 C 9.757812 -23.589844 10.375 -23.960938 10.992188 -24.207031 C 11.238281 -24.328125 11.363281 -24.453125 11.484375 -24.699219 C 11.734375 -24.949219 11.734375 -25.195312 11.609375 -25.441406 C 11.363281 -25.8125 10.867188 -25.933594 10.867188 -26.429688 C 11.363281 -26.675781 11.734375 -26.800781 12.101562 -27.046875 C 12.472656 -27.046875 12.722656 -27.171875 12.84375 -27.417969 C 13.089844 -27.910156 13.339844 -28.28125 13.585938 -28.777344 C 13.585938 -29.023438 13.585938 -29.269531 13.214844 -29.148438 C 12.84375 -29.023438 12.722656 -29.148438 12.722656 -29.394531 C 12.597656 -29.765625 12.597656 -30.132812 13.089844 -30.257812 C 13.707031 -30.257812 14.203125 -30.503906 14.203125 -31.121094 C 14.328125 -32.480469 15.3125 -32.976562 16.300781 -33.59375 C 16.425781 -32.976562 15.5625 -32.851562 15.808594 -32.109375 C 16.179688 -31.617188 15.683594 -31.121094 15.5625 -30.628906 C 15.4375 -30.132812 15.191406 -29.640625 15.3125 -29.148438 C 15.3125 -28.527344 14.820312 -27.910156 15.191406 -27.171875 C 15.683594 -26.429688 14.449219 -26.183594 14.695312 -25.441406 L 14.695312 -25.195312 C 15.3125 -24.699219 15.3125 -24.699219 14.820312 -24.207031 C 14.449219 -23.710938 13.832031 -23.21875 14.078125 -22.355469 C 14.203125 -22.105469 14.078125 -21.859375 14.078125 -21.613281 C 13.707031 -19.761719 13.707031 -17.785156 14.078125 -15.808594 C 14.328125 -13.957031 14.328125 -12.101562 15.3125 -10.375 C 16.054688 -8.769531 16.671875 -7.285156 18.523438 -6.421875 C 18.894531 -6.175781 19.265625 -5.804688 19.636719 -5.558594 C 20.5 -4.691406 21.613281 -4.445312 22.601562 -4.324219 C 22.847656 -4.324219 23.21875 -4.199219 23.464844 -4.199219 C 24.328125 -4.199219 25.070312 -4.570312 25.566406 -5.433594 C 26.183594 -6.296875 26.554688 -7.410156 27.789062 -7.78125 C 27.910156 -7.902344 27.910156 -8.027344 28.035156 -8.152344 C 28.777344 -9.632812 29.886719 -10.867188 30.753906 -12.351562 C 31.738281 -13.957031 33.222656 -15.066406 33.59375 -16.917969 C 33.59375 -17.042969 33.714844 -17.042969 33.714844 -17.167969 Z M 34.582031 -21.242188 C 35.445312 -21.242188 35.445312 -21.242188 35.570312 -20.625 L 34.210938 -20.625 C 34.085938 -20.996094 33.964844 -21.367188 34.582031 -21.242188 Z M 33.46875 -19.019531 C 33.34375 -18.894531 33.097656 -18.894531 32.976562 -18.773438 C 32.976562 -19.019531 32.976562 -19.144531 33.097656 -19.390625 C 33.097656 -19.511719 33.222656 -19.511719 33.46875 -19.511719 C 33.714844 -19.636719 33.714844 -19.265625 33.46875 -19.019531 Z M 37.667969 -14.328125 C 37.792969 -14.449219 37.914062 -14.695312 38.039062 -14.820312 L 38.285156 -14.574219 C 38.410156 -14.328125 38.285156 -14.203125 38.039062 -14.203125 C 37.914062 -14.203125 37.792969 -14.328125 37.667969 -14.328125 Z M 6.546875 -20.5 C 6.421875 -20.253906 6.296875 -20.132812 6.175781 -20.007812 L 6.175781 -20.625 C 6.175781 -20.75 6.296875 -20.75 6.296875 -20.75 Z M 15.933594 -34.703125 C 15.933594 -34.828125 16.054688 -34.828125 16.054688 -34.828125 L 16.425781 -34.828125 C 16.425781 -34.703125 16.550781 -34.703125 16.425781 -34.582031 C 16.425781 -34.457031 15.933594 -34.582031 15.933594 -34.703125 Z M 35.816406 -24.082031 C 36.1875 -23.835938 35.691406 -23.960938 35.691406 -23.835938 C 35.691406 -23.960938 35.816406 -24.082031 35.816406 -24.082031 Z M 40.632812 -18.523438 L 40.507812 -18.402344 L 40.507812 -18.523438 Z M 39.273438 -30.628906 L 39.398438 -30.503906 L 39.273438 -30.503906 Z M 38.65625 -10.621094 L 38.78125 -10.621094 L 38.78125 -10.496094 Z M 39.027344 -14.328125 L 39.148438 -14.328125 L 39.148438 -14.203125 Z M 11.734375 -27.664062 L 11.609375 -27.664062 L 11.609375 -27.789062 Z M 37.542969 -26.800781 L 37.421875 -26.800781 L 37.421875 -26.921875 Z M 39.769531 -26.921875 L 39.890625 -26.921875 L 39.890625 -26.800781 Z M 39.148438 -11.980469 L 39.027344 -11.855469 L 39.027344 -11.980469 Z M 39.890625 -23.09375 L 39.769531 -23.09375 L 39.890625 -23.21875 Z M 38.410156 -23.589844 L 38.285156 -23.589844 L 38.285156 -23.710938 Z M 38.65625 -17.90625 L 38.65625 -18.15625 Z M 40.878906 -26.304688 L 40.878906 -26.554688 Z M 40.878906 -26.304688 "/></g></g></g><g fill="#04471c" fill-opacity="1"><g transform="translate(272.721956, 366.257858)"><g><path d="M 19.265625 -15.4375 C 19.390625 -15.683594 19.144531 -15.933594 18.894531 -16.054688 L 18.894531 -16.300781 C 18.894531 -16.550781 18.894531 -16.796875 19.144531 -16.796875 C 19.144531 -16.796875 19.265625 -16.671875 19.390625 -16.671875 C 19.761719 -16.550781 20.253906 -16.425781 20.253906 -15.683594 L 20.253906 -13.339844 C 20.253906 -12.597656 20.625 -11.855469 20.75 -11.113281 C 20.871094 -7.535156 23.09375 -5.0625 25.6875 -2.839844 C 25.8125 -2.71875 26.183594 -2.71875 26.304688 -2.59375 C 26.554688 -2.46875 26.800781 -2.347656 27.046875 -2.347656 C 28.652344 -2.347656 33.59375 -6.421875 34.703125 -7.535156 C 35.199219 -7.902344 34.953125 -8.523438 35.320312 -8.890625 C 35.691406 -9.140625 36.1875 -9.507812 36.558594 -9.878906 C 36.679688 -10.003906 36.679688 -10.25 36.558594 -10.25 L 36.1875 -10.25 C 33.964844 -8.769531 31.863281 -7.285156 29.515625 -6.175781 C 28.777344 -5.804688 28.035156 -5.679688 27.292969 -5.679688 C 26.921875 -5.679688 26.554688 -5.679688 26.183594 -5.804688 C 25.070312 -7.285156 24.578125 -9.140625 24.578125 -10.992188 C 24.578125 -17.414062 27.789062 -31.121094 30.382812 -36.308594 C 31.246094 -37.792969 31.371094 -39.398438 31.121094 -41.003906 C 30.503906 -41.375 29.886719 -41.742188 29.269531 -41.742188 C 28.898438 -41.742188 28.527344 -41.621094 28.160156 -41.375 C 28.035156 -41.25 27.789062 -41.25 27.664062 -41.25 C 27.417969 -41.25 27.292969 -41.25 27.046875 -41.375 C 25.316406 -42.238281 23.589844 -42.238281 21.738281 -42.238281 C 18.773438 -42.113281 16.179688 -41.375 13.832031 -39.398438 C 12.84375 -38.53125 11.855469 -37.421875 10.621094 -36.925781 C 10.496094 -36.804688 10.375 -36.679688 10.375 -36.558594 C 10.003906 -35.816406 9.386719 -35.074219 8.769531 -34.828125 C 7.78125 -34.332031 8.027344 -33.222656 7.164062 -32.605469 C 4.570312 -30.257812 2.71875 -26.429688 1.234375 -23.21875 C 0.988281 -22.972656 0.863281 -22.722656 0.742188 -22.476562 C -1.480469 -15.683594 -2.59375 -11.484375 -2.59375 -4.074219 C -2.59375 -1.730469 -1.730469 0.371094 0.125 1.976562 L 0.988281 2.839844 C 1.359375 3.210938 1.851562 3.457031 2.46875 3.457031 C 3.085938 3.335938 3.828125 3.335938 4.445312 2.964844 C 6.296875 2.097656 10.621094 -0.742188 11.609375 -2.347656 C 11.855469 -2.71875 12.597656 -2.839844 12.84375 -3.335938 C 13.214844 -4.074219 13.832031 -4.691406 14.328125 -5.3125 C 13.957031 -6.296875 15.191406 -6.792969 15.3125 -7.535156 C 15.4375 -8.273438 15.933594 -9.015625 16.300781 -9.632812 C 16.550781 -10.375 16.917969 -10.992188 17.414062 -11.734375 C 17.660156 -12.226562 18.03125 -12.597656 17.90625 -13.214844 C 18.773438 -13.585938 19.019531 -14.574219 19.265625 -15.4375 Z M 2.71875 0.246094 C 2.59375 0.371094 2.347656 0.371094 2.097656 0.492188 C 1.851562 0.246094 1.605469 0.125 1.605469 0 C 1.359375 -0.246094 1.359375 -0.617188 1.359375 -0.863281 C 1.359375 -1.730469 1.359375 -2.59375 0.988281 -3.457031 C 0.863281 -3.703125 0.863281 -4.074219 0.988281 -4.445312 C 1.480469 -6.175781 1.480469 -7.902344 1.730469 -9.757812 C 1.976562 -10.375 2.097656 -11.113281 2.222656 -11.734375 C 2.964844 -13.957031 3.335938 -16.300781 4.324219 -18.402344 C 4.941406 -19.761719 5.3125 -21.117188 5.929688 -22.355469 C 6.175781 -22.847656 6.546875 -23.21875 6.792969 -23.710938 C 7.285156 -24.824219 8.152344 -25.6875 8.398438 -26.800781 C 8.523438 -26.921875 8.523438 -27.171875 8.644531 -27.292969 C 9.878906 -28.160156 10.496094 -29.515625 11.734375 -30.503906 C 12.722656 -31.371094 13.585938 -32.605469 14.695312 -33.46875 C 16.550781 -34.828125 18.277344 -36.1875 20.5 -37.050781 C 21.738281 -37.542969 22.847656 -38.285156 23.835938 -39.273438 C 24.207031 -39.519531 24.328125 -39.644531 24.578125 -39.644531 C 24.824219 -39.644531 24.949219 -39.519531 25.195312 -39.273438 C 25.933594 -38.65625 26.058594 -38.285156 25.6875 -37.421875 C 25.070312 -35.9375 24.328125 -34.457031 23.960938 -32.851562 C 23.710938 -31.121094 22.355469 -26.921875 21.488281 -25.316406 C 20.378906 -22.847656 19.144531 -20.378906 17.90625 -17.785156 C 17.289062 -16.179688 16.179688 -14.695312 15.191406 -13.214844 C 14.449219 -11.734375 13.460938 -10.375 12.722656 -8.890625 C 10.25 -4.941406 6.546875 -2.222656 2.71875 0.246094 Z M 17.90625 -14.574219 C 18.03125 -14.695312 18.03125 -14.820312 18.03125 -14.945312 L 18.277344 -14.695312 C 18.277344 -14.574219 18.15625 -14.449219 18.03125 -14.328125 C 18.03125 -14.449219 17.90625 -14.449219 17.90625 -14.574219 Z M 3.828125 -26.304688 L 3.953125 -26.304688 L 3.953125 -26.183594 Z M 20.132812 -18.648438 L 20.007812 -18.648438 L 20.007812 -18.773438 Z M 3.457031 -25.441406 L 3.457031 -25.316406 L 3.335938 -25.316406 Z M 15.683594 -10.496094 L 15.683594 -10.746094 Z M 15.683594 -10.496094 "/></g></g></g><g fill="#04471c" fill-opacity="1"><g transform="translate(307.917207, 366.257858)"><g><path d="M 14.945312 -31.988281 C 15.191406 -31.988281 15.3125 -32.234375 15.4375 -32.359375 C 16.179688 -32.605469 16.179688 -33.34375 16.671875 -33.714844 C 18.03125 -34.582031 19.019531 -35.816406 20.132812 -36.925781 C 21.859375 -38.65625 23.710938 -40.015625 25.6875 -41.25 C 25.6875 -40.507812 25.6875 -40.507812 25.566406 -40.386719 C 24.824219 -40.015625 24.082031 -39.519531 23.710938 -38.65625 C 22.847656 -38.53125 22.722656 -37.542969 21.984375 -37.175781 C 21.242188 -36.679688 20.5 -36.0625 20.132812 -35.074219 C 20.007812 -34.953125 19.882812 -34.582031 19.636719 -34.582031 C 18.773438 -34.332031 18.523438 -33.34375 17.785156 -32.851562 C 16.917969 -32.480469 16.671875 -31.492188 16.179688 -30.875 L 13.585938 -27.910156 C 12.84375 -27.046875 12.101562 -26.058594 11.734375 -24.824219 C 11.609375 -24.207031 11.363281 -23.710938 10.867188 -23.34375 C 10.496094 -22.972656 10.25 -22.601562 9.878906 -22.230469 C 10.375 -22.105469 10.746094 -21.984375 10.992188 -21.984375 C 11.484375 -21.984375 11.855469 -22.230469 11.980469 -22.722656 C 12.351562 -24.328125 13.707031 -25.316406 14.695312 -26.675781 C 15.191406 -27.171875 15.5625 -27.664062 16.054688 -28.28125 C 16.917969 -29.515625 17.785156 -30.753906 18.894531 -31.738281 C 19.636719 -32.234375 20.132812 -32.976562 20.625 -33.59375 C 20.996094 -34.457031 21.613281 -35.074219 22.230469 -35.570312 C 22.972656 -35.9375 23.21875 -36.558594 23.464844 -37.175781 C 23.960938 -37.296875 24.328125 -37.667969 24.699219 -37.667969 C 24.824219 -37.667969 25.070312 -37.542969 25.195312 -37.421875 C 25.070312 -37.175781 25.070312 -36.804688 24.949219 -36.558594 C 24.699219 -35.691406 24.578125 -34.703125 24.207031 -33.839844 C 24.082031 -33.34375 24.578125 -33.46875 24.699219 -33.222656 C 24.824219 -33.097656 24.824219 -32.976562 24.949219 -32.851562 C 24.824219 -32.851562 24.453125 -32.851562 24.699219 -32.605469 L 24.949219 -32.851562 C 25.195312 -32.976562 25.441406 -33.222656 25.316406 -33.34375 C 24.949219 -34.085938 24.824219 -34.582031 25.8125 -34.953125 C 26.304688 -35.199219 26.554688 -35.691406 26.921875 -36.1875 C 27.292969 -37.050781 27.789062 -37.792969 28.28125 -38.65625 C 28.777344 -39.398438 29.148438 -40.261719 29.640625 -41.003906 C 29.269531 -42.363281 28.28125 -43.101562 27.292969 -43.96875 C 27.046875 -44.214844 26.800781 -44.335938 26.429688 -44.335938 C 26.058594 -44.335938 25.566406 -44.214844 25.566406 -43.84375 C 25.6875 -43.472656 25.566406 -43.347656 25.441406 -43.347656 C 25.195312 -43.347656 25.070312 -43.347656 24.949219 -43.347656 C 24.949219 -43.597656 24.699219 -43.71875 24.578125 -43.71875 C 23.710938 -43.472656 22.847656 -43.226562 22.601562 -42.363281 C 22.355469 -42.363281 22.105469 -42.363281 21.859375 -42.238281 C 20.75 -41.375 19.511719 -40.386719 18.773438 -39.027344 L 19.761719 -39.027344 C 18.648438 -37.542969 17.414062 -36.308594 15.933594 -35.320312 L 15.933594 -36.1875 C 14.820312 -35.570312 14.078125 -34.457031 13.214844 -33.59375 C 13.089844 -33.34375 13.089844 -33.097656 13.089844 -32.851562 C 12.84375 -32.851562 12.597656 -32.726562 12.597656 -32.359375 L 12.597656 -32.480469 C 12.84375 -32.480469 13.089844 -32.605469 13.089844 -32.851562 C 13.339844 -33.097656 13.707031 -33.222656 14.078125 -33.34375 C 13.957031 -33.097656 13.957031 -32.726562 13.832031 -32.480469 C 12.96875 -31.617188 12.226562 -30.503906 11.484375 -29.394531 C 11.238281 -28.898438 10.867188 -28.28125 10.25 -28.160156 L 10.25 -29.023438 C 10.25 -29.023438 10.375 -29.148438 10.375 -29.148438 C 10.25 -29.148438 10.25 -29.148438 10.25 -29.148438 L 9.507812 -28.652344 C 9.261719 -28.40625 9.140625 -28.28125 8.890625 -28.160156 C 8.769531 -28.652344 8.890625 -29.023438 9.015625 -29.515625 C 10.128906 -31.988281 10.992188 -34.582031 11.855469 -37.175781 C 12.226562 -37.914062 12.472656 -38.65625 12.84375 -39.398438 C 13.214844 -40.015625 13.214844 -40.753906 13.089844 -41.375 C 12.96875 -41.992188 12.351562 -42.238281 11.855469 -42.484375 C 10.992188 -43.101562 10.128906 -43.84375 9.261719 -44.460938 C 9.015625 -44.585938 8.644531 -44.460938 8.523438 -44.214844 C 8.398438 -44.089844 8.398438 -43.96875 8.398438 -43.96875 C 7.65625 -41.496094 6.667969 -39.027344 5.804688 -36.679688 C 5.3125 -35.570312 4.816406 -34.332031 4.691406 -33.097656 C 4.445312 -31.988281 4.199219 -31 3.703125 -30.011719 C 2.839844 -28.035156 2.59375 -25.933594 1.851562 -23.960938 C 1.605469 -23.464844 1.605469 -22.847656 1.730469 -22.601562 C 2.222656 -21.738281 1.851562 -21.117188 1.605469 -20.5 C 1.113281 -19.511719 0.742188 -18.402344 0.492188 -17.167969 L -0.617188 -12.722656 C -0.742188 -11.855469 -0.617188 -11.113281 -0.988281 -10.375 C -1.359375 -9.632812 -0.988281 -8.644531 -1.480469 -7.902344 C -1.605469 -6.421875 -2.347656 -4.941406 -2.097656 -3.457031 C -1.976562 -2.59375 -2.097656 -1.851562 -2.46875 -1.113281 L -2.222656 -0.863281 C -1.851562 -1.113281 -1.851562 -1.359375 -1.480469 -1.359375 C -1.480469 -1.359375 -1.359375 -1.234375 -1.234375 -1.234375 C -1.234375 -0.742188 -1.234375 0 -1.113281 0.617188 C -0.988281 1.480469 -0.371094 1.976562 0.371094 2.222656 C 0.742188 2.222656 0.988281 2.097656 1.234375 1.851562 C 1.730469 0.742188 1.976562 -0.371094 2.097656 -1.605469 C 2.222656 -2.71875 2.46875 -3.703125 2.839844 -4.816406 C 3.457031 -6.296875 3.828125 -7.902344 4.691406 -9.261719 C 5.433594 -10.496094 5.679688 -11.855469 6.546875 -12.84375 C 7.902344 -14.449219 8.523438 -16.550781 9.261719 -18.523438 C 9.632812 -19.265625 9.878906 -20.007812 10.128906 -20.75 C 10.128906 -20.871094 9.878906 -21.117188 9.632812 -21.242188 C 9.632812 -21.367188 9.386719 -21.242188 9.261719 -21.242188 C 9.015625 -20.75 8.644531 -20.253906 8.398438 -19.761719 C 8.152344 -19.144531 7.902344 -18.402344 7.410156 -17.90625 C 6.792969 -17.414062 6.296875 -16.550781 5.929688 -15.808594 C 5.804688 -15.3125 5.558594 -14.945312 5.0625 -14.820312 C 5.1875 -15.808594 5.558594 -16.796875 5.929688 -17.660156 C 6.421875 -19.144531 6.917969 -20.5 8.152344 -21.488281 C 8.273438 -21.738281 8.644531 -21.984375 8.644531 -22.230469 C 9.015625 -23.835938 10.003906 -24.949219 10.992188 -26.304688 C 11.238281 -26.554688 10.621094 -27.171875 11.113281 -27.292969 C 11.980469 -27.542969 11.734375 -28.28125 12.101562 -28.777344 C 12.597656 -29.515625 13.089844 -30.132812 13.585938 -31 C 13.832031 -31.492188 14.328125 -31.863281 14.945312 -31.988281 Z M 22.601562 -40.507812 C 22.476562 -40.261719 22.355469 -40.015625 22.105469 -40.015625 L 22.105469 -40.507812 L 21.117188 -40.507812 C 21.242188 -40.878906 21.613281 -41.125 21.984375 -41.496094 C 22.230469 -41.742188 22.476562 -41.992188 22.601562 -42.363281 L 23.464844 -42.363281 C 23.21875 -41.867188 22.847656 -41.375 22.601562 -40.878906 C 22.722656 -40.878906 22.847656 -40.753906 22.972656 -40.753906 C 22.847656 -40.632812 22.722656 -40.507812 22.601562 -40.507812 Z M 7.65625 -24.207031 C 7.65625 -24.207031 7.78125 -24.082031 7.78125 -23.960938 C 7.78125 -23.589844 7.535156 -23.34375 7.285156 -23.09375 C 7.164062 -23.09375 7.164062 -23.09375 7.039062 -23.21875 L 7.039062 -23.34375 C 7.039062 -23.710938 7.164062 -23.835938 7.410156 -24.082031 C 7.535156 -24.082031 7.535156 -24.207031 7.65625 -24.207031 Z M 22.601562 -41.003906 C 22.355469 -40.878906 22.105469 -40.753906 22.105469 -40.507812 L 22.601562 -40.507812 Z M 4.816406 -14.574219 C 4.570312 -14.820312 4.941406 -14.820312 5.0625 -14.820312 C 4.941406 -14.820312 4.941406 -14.695312 4.816406 -14.574219 Z M 11.484375 -30.875 L 11.363281 -30.753906 L 11.484375 -30.753906 Z M 14.078125 -33.34375 C 14.078125 -33.34375 13.957031 -33.34375 13.957031 -33.34375 Z M 14.078125 -33.34375 "/></g></g></g><g fill="#04471c" fill-opacity="1"><g transform="translate(333.480081, 366.257858)"><g><path d="M 28.652344 -85.710938 C 28.527344 -85.835938 28.40625 -85.835938 28.28125 -85.835938 C 28.28125 -85.710938 28.40625 -85.585938 28.40625 -85.585938 C 28.527344 -85.585938 28.652344 -85.710938 28.652344 -85.710938 Z M 23.835938 -70.765625 C 23.710938 -70.273438 23.710938 -70.027344 23.464844 -70.027344 C 23.34375 -70.027344 23.21875 -70.027344 23.09375 -70.148438 C 22.972656 -70.148438 22.847656 -70.273438 22.722656 -70.273438 C 24.578125 -75.335938 26.304688 -79.164062 28.28125 -82.992188 C 28.652344 -83.734375 29.023438 -84.105469 29.148438 -84.847656 C 29.394531 -85.710938 29.765625 -86.453125 29.886719 -87.316406 C 30.011719 -87.808594 30.011719 -88.304688 29.886719 -88.675781 C 29.640625 -89.539062 29.148438 -90.28125 28.777344 -91.019531 C 28.527344 -91.515625 26.800781 -92.007812 26.429688 -91.886719 C 26.304688 -91.886719 26.304688 -91.886719 26.183594 -91.761719 C 24.328125 -90.527344 23.710938 -88.550781 22.972656 -86.453125 C 21.738281 -82.871094 20.75 -81.386719 19.636719 -77.683594 C 19.511719 -77.1875 19.144531 -76.695312 19.019531 -76.199219 L 17.660156 -71.507812 L 17.660156 -71.261719 C 17.90625 -71.261719 18.15625 -71.507812 18.15625 -71.753906 C 18.15625 -72.25 18.402344 -72.742188 18.773438 -73.238281 C 18.894531 -73.484375 19.144531 -73.609375 19.265625 -73.609375 C 19.511719 -73.609375 19.761719 -73.484375 20.007812 -73.238281 L 19.265625 -71.261719 C 18.773438 -71.136719 18.15625 -71.136719 17.660156 -71.136719 L 17.660156 -71.261719 C 17.539062 -71.136719 17.539062 -71.136719 17.414062 -71.136719 C 16.425781 -71.015625 15.4375 -70.890625 14.574219 -70.890625 C 14.078125 -70.890625 13.585938 -70.890625 13.214844 -70.765625 C 12.351562 -70.519531 11.855469 -70.519531 10.992188 -70.519531 C 9.015625 -70.519531 6.917969 -70.027344 5.0625 -69.902344 C 4.199219 -69.902344 3.457031 -69.777344 2.71875 -69.777344 C 2.46875 -69.777344 2.347656 -69.777344 2.097656 -69.777344 L 0.988281 -69.53125 C 0.371094 -69.53125 0.125 -68.914062 -0.125 -68.050781 C -0.371094 -67.308594 -0.246094 -66.199219 0 -65.210938 C 0 -64.46875 0.492188 -63.851562 0.988281 -63.972656 C 1.113281 -63.972656 1.359375 -64.097656 1.605469 -63.972656 C 3.335938 -64.34375 4.816406 -64.839844 6.296875 -64.839844 C 6.546875 -64.839844 6.667969 -64.839844 6.792969 -64.839844 C 7.65625 -64.960938 8.523438 -65.085938 9.386719 -65.085938 C 9.878906 -65.085938 10.621094 -65.210938 11.238281 -65.332031 C 11.484375 -65.332031 11.609375 -65.332031 11.734375 -65.457031 C 11.609375 -65.703125 11.484375 -66.074219 11.238281 -66.199219 C 11.484375 -66.445312 11.734375 -66.445312 11.980469 -66.445312 C 12.84375 -66.566406 13.707031 -66.445312 14.574219 -66.816406 C 14.945312 -66.816406 15.4375 -66.816406 15.933594 -66.9375 L 15.933594 -66.566406 C 15.933594 -66.445312 15.933594 -66.320312 15.808594 -66.199219 C 15.683594 -65.949219 15.5625 -65.828125 15.683594 -65.703125 C 14.574219 -62.738281 10.496094 -52.488281 10.746094 -51.5 C 11.363281 -51.746094 16.054688 -64.59375 16.179688 -64.960938 L 16.179688 -65.457031 C 16.796875 -65.457031 16.917969 -65.828125 16.425781 -66.320312 C 16.425781 -66.566406 16.550781 -66.816406 16.671875 -67.0625 C 16.796875 -67.0625 17.042969 -67.0625 17.289062 -67.183594 C 17.539062 -67.308594 17.785156 -67.308594 18.15625 -67.308594 C 18.03125 -67.0625 17.90625 -66.9375 17.90625 -66.816406 C 17.785156 -66.691406 17.785156 -66.566406 17.785156 -66.445312 L 17.785156 -66.320312 C 17.660156 -66.320312 17.660156 -66.320312 17.539062 -66.320312 C 17.167969 -66.320312 16.796875 -65.949219 17.660156 -65.703125 C 16.796875 -62.617188 12.472656 -51.625 12.226562 -50.390625 C 11.609375 -48.414062 11.238281 -46.4375 10.496094 -44.585938 C 9.878906 -42.609375 7.164062 -32.605469 6.050781 -30.753906 C 5.929688 -30.503906 5.929688 -30.011719 5.804688 -29.640625 C 5.558594 -28.035156 4.816406 -26.554688 4.691406 -24.949219 C 4.691406 -24.699219 4.570312 -24.578125 4.445312 -24.453125 L 3.953125 -22.722656 C 3.582031 -21.117188 2.839844 -19.761719 2.964844 -18.15625 C 2.964844 -18.03125 2.964844 -18.03125 2.839844 -17.90625 C 2.097656 -16.550781 1.976562 -15.066406 1.730469 -13.585938 C 1.480469 -12.226562 0.988281 -10.867188 1.113281 -9.507812 C 1.113281 -9.261719 0.988281 -9.015625 0.863281 -8.769531 C 0.863281 -8.890625 0.742188 -9.015625 0.742188 -9.015625 C 0.371094 -11.484375 1.234375 -13.832031 1.234375 -16.300781 L 1.234375 -16.425781 C 1.976562 -17.539062 2.097656 -18.773438 2.222656 -20.132812 C 2.222656 -21.242188 4.445312 -29.269531 4.816406 -30.503906 C 4.941406 -30.875 7.410156 -39.148438 7.039062 -40.015625 C 6.667969 -38.285156 3.828125 -28.898438 3.335938 -27.417969 C 2.222656 -23.589844 -0.371094 -15.3125 -0.371094 -11.363281 L -0.371094 -10.496094 C -1.113281 -8.523438 -0.742188 -6.421875 -0.742188 -4.324219 C -0.742188 -3.085938 0 -0.371094 1.234375 0.246094 C 2.347656 0.863281 3.210938 1.851562 4.199219 2.71875 C 4.570312 3.085938 4.941406 3.210938 5.3125 3.210938 C 5.679688 3.210938 5.929688 3.085938 6.296875 2.964844 L 9.757812 1.480469 C 11.238281 0.742188 12.597656 0.125 13.832031 -0.988281 C 13.707031 -1.113281 13.585938 -1.113281 13.585938 -1.359375 L 13.957031 -1.605469 L 13.957031 -1.480469 C 13.957031 -1.730469 14.078125 -1.851562 14.328125 -1.976562 C 14.820312 -2.839844 15.5625 -3.457031 16.300781 -4.074219 C 16.550781 -4.324219 16.671875 -4.324219 16.917969 -4.324219 C 17.167969 -4.324219 17.289062 -4.324219 17.539062 -4.199219 C 17.660156 -4.199219 17.785156 -4.074219 18.03125 -4.074219 C 18.15625 -4.074219 18.277344 -4.199219 18.402344 -4.324219 C 18.523438 -4.570312 18.402344 -4.691406 18.15625 -4.816406 C 18.03125 -4.941406 17.90625 -5.0625 17.90625 -5.1875 C 17.90625 -5.558594 18.523438 -5.679688 18.773438 -5.679688 C 18.773438 -5.679688 18.894531 -5.679688 19.019531 -5.679688 C 19.144531 -5.558594 19.265625 -5.558594 19.390625 -5.558594 C 19.511719 -5.558594 19.636719 -5.804688 19.511719 -5.929688 C 19.265625 -6.546875 19.390625 -6.792969 19.882812 -7.164062 C 20.871094 -7.902344 21.859375 -8.769531 22.476562 -9.878906 C 22.722656 -10.128906 22.722656 -10.375 22.722656 -10.746094 C 22.601562 -11.113281 22.847656 -11.238281 23.21875 -11.363281 C 23.464844 -11.484375 23.835938 -11.484375 24.082031 -11.484375 C 24.949219 -11.609375 25.316406 -12.101562 25.316406 -12.96875 C 25.6875 -13.089844 25.8125 -13.339844 25.8125 -13.707031 L 25.8125 -15.3125 L 25.316406 -15.3125 C 25.316406 -15.5625 25.566406 -15.683594 25.8125 -15.808594 L 25.8125 -15.3125 C 26.429688 -15.4375 26.554688 -15.4375 26.675781 -16.179688 L 26.183594 -16.179688 C 26.058594 -15.933594 26.058594 -15.808594 25.8125 -15.808594 C 25.8125 -16.054688 25.933594 -16.179688 26.183594 -16.300781 C 26.304688 -16.550781 26.429688 -16.550781 26.675781 -16.671875 L 26.921875 -17.539062 C 27.417969 -18.15625 27.910156 -18.773438 28.652344 -19.144531 C 28.652344 -19.390625 28.898438 -19.511719 29.148438 -19.636719 C 29.023438 -19.265625 28.898438 -19.144531 28.652344 -19.019531 C 28.652344 -18.402344 28.28125 -18.03125 28.160156 -17.660156 C 29.023438 -17.660156 29.515625 -18.277344 29.886719 -18.894531 C 30.011719 -19.019531 29.886719 -19.390625 29.515625 -19.511719 L 29.148438 -19.511719 C 29.394531 -20.132812 29.886719 -20.75 30.503906 -20.996094 C 30.628906 -20.871094 30.503906 -20.5 30.875 -20.75 L 30.503906 -20.996094 C 30.503906 -21.488281 30.753906 -21.859375 31.121094 -22.230469 L 33.46875 -24.699219 C 34.828125 -26.554688 36.1875 -28.28125 37.792969 -29.886719 C 38.164062 -30.503906 38.164062 -30.753906 37.914062 -30.753906 C 37.792969 -30.753906 37.542969 -30.628906 37.175781 -30.257812 L 32.605469 -25.195312 C 30.628906 -22.722656 28.777344 -20.378906 26.554688 -18.277344 L 24.578125 -16.179688 C 23.960938 -15.191406 23.21875 -14.449219 22.476562 -13.707031 L 18.894531 -10.128906 C 18.523438 -9.757812 18.15625 -9.261719 17.785156 -9.015625 C 16.671875 -8.398438 15.933594 -7.535156 15.066406 -6.667969 C 12.96875 -4.691406 10.621094 -2.964844 8.152344 -1.359375 C 7.535156 -0.863281 6.667969 -0.492188 5.929688 -0.125 C 5.804688 -0.125 5.679688 0 5.433594 0 C 4.941406 0 4.691406 -0.371094 4.445312 -0.863281 C 4.074219 -1.730469 3.953125 -2.59375 3.953125 -3.457031 L 3.953125 -6.296875 C 3.953125 -6.917969 3.953125 -7.78125 4.074219 -8.398438 C 4.445312 -9.261719 4.445312 -10.25 4.445312 -11.113281 C 4.445312 -11.980469 4.570312 -12.722656 4.816406 -13.460938 C 5.0625 -14.078125 5.3125 -14.695312 5.3125 -15.3125 L 5.804688 -18.03125 C 5.929688 -19.144531 6.421875 -20.007812 6.792969 -20.871094 C 7.039062 -21.613281 7.039062 -22.230469 7.285156 -22.972656 C 7.410156 -23.589844 7.535156 -24.207031 7.78125 -24.699219 C 7.902344 -25.070312 8.769531 -28.160156 8.769531 -28.527344 C 8.769531 -29.023438 8.890625 -29.394531 9.140625 -29.886719 C 9.386719 -30.382812 12.101562 -38.78125 12.226562 -39.398438 C 12.597656 -41.003906 13.089844 -42.609375 13.585938 -44.089844 C 14.449219 -47.054688 20.007812 -62 20.996094 -64.960938 L 22.105469 -68.171875 C 22.476562 -68.050781 22.722656 -68.050781 22.972656 -68.050781 C 23.21875 -68.050781 23.464844 -68.050781 23.589844 -68.171875 C 23.835938 -68.171875 24.207031 -68.421875 24.453125 -68.296875 C 24.578125 -68.050781 24.699219 -68.050781 24.824219 -68.050781 C 25.070312 -68.050781 25.195312 -68.171875 25.316406 -68.171875 C 25.441406 -68.421875 25.566406 -68.667969 25.6875 -68.667969 C 25.8125 -68.667969 25.8125 -68.542969 25.933594 -68.421875 C 26.183594 -67.925781 26.183594 -67.925781 26.429688 -68.171875 L 25.933594 -68.421875 C 26.058594 -68.789062 26.304688 -68.667969 26.429688 -68.667969 L 26.429688 -68.421875 C 26.554688 -68.789062 26.554688 -68.789062 26.554688 -68.296875 L 27.171875 -68.789062 C 27.292969 -68.914062 27.542969 -69.039062 27.910156 -69.039062 C 28.035156 -69.039062 28.160156 -69.039062 28.28125 -69.039062 C 29.148438 -69.160156 29.886719 -69.285156 30.628906 -69.65625 C 31 -69.65625 31.246094 -70.027344 31.492188 -69.902344 C 32.605469 -69.777344 33.714844 -70.644531 34.828125 -70.644531 C 35.816406 -70.890625 36.558594 -71.382812 37.175781 -71.507812 C 37.914062 -71.507812 40.386719 -72.371094 40.878906 -72.867188 C 41.25 -73.113281 41.496094 -73.113281 41.867188 -73.113281 C 42.238281 -73.113281 42.730469 -72.988281 43.101562 -72.867188 C 42.113281 -72.125 41.003906 -71.382812 39.890625 -70.765625 C 40.136719 -70.644531 40.261719 -70.644531 40.507812 -70.644531 C 40.632812 -70.644531 40.878906 -70.644531 41.125 -70.765625 C 41.621094 -71.261719 42.113281 -71.136719 42.363281 -71.632812 C 42.484375 -71.632812 42.609375 -71.632812 42.609375 -71.632812 C 42.855469 -71.632812 44.460938 -72.496094 44.460938 -72.867188 C 44.707031 -73.855469 44.335938 -74.59375 44.460938 -75.707031 C 44.585938 -76.078125 44.335938 -76.449219 44.089844 -76.570312 C 43.96875 -76.695312 43.71875 -76.820312 43.597656 -76.820312 C 43.472656 -76.820312 43.347656 -76.695312 43.226562 -76.324219 C 42.855469 -75.707031 42.363281 -75.460938 41.992188 -75.460938 C 41.375 -75.460938 41.003906 -74.964844 40.507812 -74.71875 C 40.261719 -74.347656 39.890625 -74.101562 39.519531 -74.101562 C 39.398438 -74.226562 39.273438 -74.226562 39.148438 -74.226562 C 38.78125 -74.226562 38.53125 -73.976562 38.164062 -73.976562 C 38.039062 -73.730469 37.667969 -73.484375 37.296875 -73.609375 C 37.175781 -73.609375 37.050781 -73.609375 36.925781 -73.609375 C 36.558594 -73.609375 36.308594 -73.609375 36.1875 -73.359375 C 35.9375 -73.238281 35.570312 -72.988281 35.320312 -72.988281 C 35.199219 -72.988281 35.074219 -73.113281 34.953125 -73.113281 C 34.828125 -73.359375 34.582031 -73.238281 34.332031 -72.988281 C 33.839844 -72.621094 33.222656 -72.371094 32.851562 -72.496094 C 32.726562 -72.621094 32.605469 -72.621094 32.480469 -72.621094 C 32.359375 -72.621094 32.109375 -72.496094 31.988281 -72.371094 C 31.988281 -72.003906 31.121094 -71.878906 30.753906 -71.878906 C 30.503906 -71.878906 30.257812 -72.003906 30.011719 -72.125 C 29.886719 -72.003906 29.515625 -72.003906 29.269531 -71.632812 C 28.898438 -71.261719 28.40625 -71.136719 27.789062 -71.136719 C 27.664062 -70.890625 27.417969 -70.765625 27.171875 -71.015625 C 26.921875 -71.261719 26.675781 -70.890625 26.554688 -70.890625 C 26.554688 -70.765625 26.429688 -70.765625 26.304688 -70.765625 C 26.183594 -70.765625 25.933594 -70.765625 25.8125 -70.765625 C 25.6875 -70.765625 25.6875 -70.765625 25.566406 -70.765625 C 25.441406 -70.519531 25.195312 -70.519531 24.949219 -70.519531 C 24.699219 -70.519531 24.207031 -70.644531 23.835938 -70.765625 C 23.960938 -71.015625 23.960938 -71.382812 24.207031 -71.382812 C 24.328125 -71.507812 24.578125 -71.632812 24.699219 -71.878906 C 24.578125 -72.003906 24.453125 -72.003906 24.328125 -72.003906 C 24.082031 -72.003906 23.710938 -71.878906 23.589844 -71.753906 C 23.464844 -71.753906 23.464844 -71.753906 23.464844 -71.507812 C 23.464844 -71.382812 23.589844 -71.136719 23.589844 -71.015625 Z M 10.375 -51.253906 L 8.398438 -44.832031 C 8.273438 -44.460938 8.398438 -43.96875 8.398438 -43.472656 C 8.644531 -43.472656 8.769531 -43.71875 8.769531 -43.96875 C 9.386719 -45.695312 9.757812 -47.546875 10.375 -49.277344 C 10.621094 -50.019531 10.746094 -50.757812 10.746094 -51.5 Z M 22.476562 -12.472656 C 22.972656 -13.214844 23.589844 -13.832031 24.328125 -14.328125 L 24.328125 -13.339844 L 23.464844 -12.722656 C 23.21875 -12.472656 22.847656 -12.472656 22.476562 -12.472656 Z M 37.175781 -72.496094 C 37.296875 -72.621094 37.421875 -72.742188 37.542969 -72.742188 C 37.792969 -72.742188 38.039062 -72.496094 38.410156 -72.371094 C 38.164062 -72.125 37.792969 -72.125 37.542969 -72.003906 C 37.050781 -72.003906 36.308594 -71.753906 35.691406 -71.753906 C 35.570312 -71.753906 35.570312 -71.753906 35.445312 -71.753906 C 35.9375 -72.371094 36.558594 -72.371094 37.175781 -72.496094 Z M 25.070312 -67.433594 C 23.34375 -67.433594 26.429688 -66.9375 26.429688 -66.9375 L 26.675781 -66.9375 L 26.675781 -67.308594 L 26.554688 -67.554688 C 26.058594 -67.554688 25.6875 -67.554688 25.070312 -67.433594 Z M 14.695312 -65.703125 C 14.203125 -65.949219 13.707031 -66.074219 13.214844 -66.074219 C 12.84375 -66.074219 12.597656 -66.074219 12.351562 -65.949219 C 12.351562 -65.828125 12.226562 -65.578125 12.226562 -65.578125 L 12.351562 -65.457031 C 13.214844 -65.457031 13.832031 -65.578125 14.695312 -65.703125 Z M 26.554688 -72.003906 C 26.921875 -71.878906 27.171875 -71.878906 27.292969 -71.878906 C 27.542969 -71.878906 27.664062 -72.003906 27.789062 -72.371094 C 27.542969 -72.496094 27.292969 -72.496094 27.171875 -72.496094 C 26.675781 -72.496094 26.183594 -72.371094 25.6875 -72.25 C 25.6875 -72.25 25.566406 -72.125 25.566406 -72.003906 L 25.6875 -71.878906 C 25.8125 -71.753906 25.933594 -71.632812 26.058594 -71.632812 C 26.304688 -71.632812 26.429688 -71.878906 26.554688 -72.003906 Z M 8.398438 -43.472656 C 7.78125 -42.855469 7.65625 -41.992188 7.535156 -41.125 C 7.410156 -41.125 7.65625 -41.003906 7.65625 -40.878906 C 8.398438 -41.621094 8.398438 -42.484375 8.398438 -43.472656 Z M 31.863281 -70.890625 C 31.617188 -70.519531 31.371094 -70.394531 31.121094 -70.394531 C 31 -70.394531 30.753906 -70.519531 30.628906 -70.765625 C 30.753906 -71.015625 31 -71.015625 31.121094 -71.015625 C 31.371094 -71.015625 31.492188 -71.015625 31.738281 -70.890625 C 31.863281 -71.261719 32.109375 -71.382812 32.359375 -71.382812 C 32.605469 -71.382812 32.726562 -71.382812 33.097656 -71.136719 C 32.726562 -71.015625 32.359375 -70.765625 32.109375 -70.765625 C 31.988281 -70.765625 31.988281 -70.765625 31.863281 -70.890625 Z M 33.839844 -73.976562 C 34.210938 -73.730469 34.332031 -73.730469 34.582031 -73.730469 C 34.953125 -73.730469 35.320312 -73.855469 35.816406 -74.226562 L 35.816406 -74.347656 C 34.828125 -74.347656 34.828125 -74.347656 33.839844 -73.976562 Z M 34.085938 -71.136719 C 33.839844 -71.261719 33.714844 -71.136719 33.34375 -71.136719 C 33.34375 -71.136719 33.222656 -71.136719 33.097656 -71.136719 C 33.097656 -71.382812 33.222656 -71.507812 33.34375 -71.632812 C 33.59375 -71.753906 33.839844 -71.878906 33.964844 -71.878906 C 34.210938 -72.003906 34.457031 -71.878906 34.457031 -71.753906 C 34.457031 -71.507812 34.210938 -71.261719 34.085938 -71.136719 Z M 18.894531 -69.53125 C 18.648438 -69.53125 18.523438 -69.410156 18.277344 -69.410156 C 18.03125 -69.410156 18.03125 -69.53125 18.03125 -69.777344 C 17.90625 -69.902344 17.90625 -70.148438 18.03125 -70.148438 C 18.15625 -70.148438 18.402344 -70.148438 18.523438 -70.273438 L 19.144531 -70.273438 Z M 22.105469 -79.535156 C 22.105469 -79.164062 21.984375 -79.042969 21.613281 -78.792969 L 21.488281 -78.792969 C 21.488281 -79.042969 21.367188 -79.289062 21.367188 -79.410156 C 21.367188 -79.78125 21.488281 -79.90625 21.738281 -79.90625 C 21.984375 -80.03125 22.230469 -79.78125 22.105469 -79.535156 Z M 29.148438 -72.621094 C 28.898438 -72.742188 28.777344 -72.742188 28.527344 -72.742188 C 28.40625 -72.742188 28.160156 -72.621094 27.910156 -72.371094 C 28.160156 -72.125 28.40625 -71.878906 28.527344 -72.003906 C 28.777344 -72.125 29.023438 -72.371094 29.023438 -72.621094 C 29.148438 -72.621094 29.269531 -72.496094 29.269531 -72.867188 C 29.148438 -72.742188 29.148438 -72.621094 29.148438 -72.621094 Z M 36.558594 -69.410156 C 36.925781 -69.410156 37.175781 -69.53125 37.421875 -69.53125 C 37.542969 -69.53125 37.667969 -69.902344 37.667969 -69.902344 C 37.421875 -70.027344 37.542969 -70.027344 37.421875 -70.027344 C 37.296875 -70.148438 37.050781 -70.148438 36.679688 -70.027344 C 36.558594 -70.027344 36.679688 -69.777344 36.558594 -69.410156 Z M 31.246094 -73.238281 C 31.246094 -72.988281 31.246094 -72.988281 31.371094 -72.867188 C 31.617188 -72.988281 31.988281 -72.867188 32.109375 -73.238281 C 31.988281 -73.359375 31.988281 -73.609375 31.988281 -73.609375 C 31.738281 -73.609375 31.492188 -73.609375 31.371094 -73.359375 Z M 38.039062 -70.519531 L 38.039062 -70.148438 L 38.164062 -70.027344 C 38.285156 -70.148438 38.410156 -70.027344 38.65625 -70.027344 C 38.65625 -70.027344 38.78125 -70.027344 38.902344 -70.148438 L 38.902344 -70.519531 Z M 32.726562 -68.667969 C 32.851562 -68.542969 32.976562 -68.542969 32.976562 -68.542969 C 33.222656 -68.542969 33.714844 -68.789062 34.210938 -68.914062 C 34.210938 -68.914062 34.210938 -69.160156 34.085938 -69.039062 C 33.839844 -69.160156 33.34375 -68.914062 32.976562 -68.789062 Z M 27.789062 -69.777344 C 27.910156 -70.148438 28.035156 -70.394531 28.160156 -70.394531 C 28.160156 -70.394531 28.28125 -70.273438 28.40625 -70.027344 C 28.527344 -69.902344 28.527344 -69.902344 28.527344 -69.777344 C 28.160156 -69.53125 28.035156 -69.65625 27.789062 -69.777344 Z M 25.316406 -12.96875 C 25.195312 -12.96875 25.070312 -12.96875 24.949219 -12.96875 C 24.699219 -12.96875 24.453125 -12.96875 24.328125 -13.460938 C 24.699219 -13.460938 25.195312 -13.460938 25.316406 -12.96875 Z M 13.585938 -69.285156 C 13.460938 -69.285156 13.339844 -69.160156 13.089844 -69.160156 C 12.84375 -69.039062 12.722656 -69.160156 12.722656 -69.285156 C 12.84375 -69.410156 12.96875 -69.65625 13.089844 -69.65625 C 13.339844 -69.65625 13.460938 -69.53125 13.585938 -69.285156 Z M 31.371094 -68.296875 C 31.121094 -68.171875 30.753906 -68.421875 30.628906 -68.542969 C 30.503906 -68.542969 30.257812 -68.542969 30.503906 -68.296875 C 30.503906 -68.171875 30.628906 -67.925781 30.753906 -68.050781 C 30.875 -68.050781 31.121094 -67.804688 31.371094 -68.296875 Z M 38.410156 -72.371094 C 38.53125 -72.621094 38.65625 -72.867188 38.902344 -72.867188 C 39.027344 -72.867188 39.027344 -72.867188 39.148438 -72.742188 C 39.027344 -72.371094 38.902344 -72.25 38.78125 -72.25 C 38.65625 -72.25 38.53125 -72.371094 38.410156 -72.371094 Z M 16.054688 -69.53125 C 16.425781 -69.777344 16.671875 -69.902344 16.917969 -69.902344 L 16.671875 -69.53125 C 16.550781 -69.410156 16.300781 -69.410156 16.054688 -69.285156 Z M 27.910156 -67.804688 C 27.664062 -67.804688 27.417969 -67.804688 27.292969 -67.554688 L 27.292969 -67.433594 C 27.417969 -67.183594 27.542969 -67.0625 27.542969 -67.433594 C 27.789062 -67.433594 27.789062 -67.433594 27.910156 -67.679688 Z M 29.269531 -70.644531 C 29.394531 -70.644531 29.394531 -70.148438 29.394531 -70.148438 L 29.394531 -70.027344 L 29.023438 -70.027344 L 29.023438 -70.519531 C 29.023438 -70.644531 29.023438 -70.644531 29.148438 -70.644531 Z M 10.128906 -66.074219 C 10.128906 -66.320312 10.25 -66.320312 10.375 -66.320312 C 10.496094 -66.320312 10.621094 -66.199219 10.867188 -66.074219 C 10.746094 -65.949219 10.621094 -65.828125 10.496094 -65.828125 C 10.375 -65.828125 10.25 -65.949219 10.128906 -66.074219 Z M 30.132812 -70.644531 C 30.257812 -70.890625 30.503906 -70.765625 30.628906 -70.765625 C 30.503906 -70.394531 30.503906 -70.273438 30.382812 -70.273438 C 30.382812 -70.273438 30.257812 -70.394531 30.132812 -70.644531 Z M 25.933594 -69.410156 C 25.933594 -69.285156 25.6875 -69.285156 25.566406 -69.160156 L 25.441406 -69.285156 L 25.441406 -69.53125 C 25.6875 -69.777344 25.8125 -69.65625 25.933594 -69.410156 Z M 0.617188 -6.667969 L 0.371094 -6.421875 C 0.371094 -6.546875 0.246094 -6.667969 0.246094 -6.792969 L 0.617188 -7.164062 Z M 24.824219 -14.820312 C 24.824219 -15.066406 25.070312 -15.3125 25.316406 -15.3125 C 25.316406 -15.066406 25.070312 -14.820312 24.824219 -14.820312 Z M 9.507812 -66.199219 C 9.632812 -66.320312 9.757812 -66.199219 10.128906 -66.074219 L 10.003906 -66.074219 C 9.878906 -65.949219 9.757812 -65.949219 9.507812 -65.949219 Z M 21.984375 -11.980469 C 21.984375 -12.226562 22.230469 -12.351562 22.476562 -12.472656 C 22.476562 -12.226562 22.230469 -11.980469 21.984375 -11.980469 Z M 13.957031 -1.113281 C 14.203125 -1.113281 14.328125 -1.113281 14.328125 -1.480469 L 13.957031 -1.480469 Z M 31.863281 -68.296875 C 31.988281 -68.542969 31.988281 -68.667969 31.988281 -68.667969 C 31.988281 -68.789062 31.988281 -68.667969 31.863281 -68.667969 C 31.738281 -68.667969 31.863281 -68.296875 31.863281 -68.296875 Z M 27.664062 -17.167969 C 27.417969 -17.167969 27.292969 -16.917969 27.171875 -16.671875 C 27.417969 -16.796875 27.664062 -16.917969 27.664062 -17.167969 Z M 24.328125 -14.328125 C 24.453125 -14.574219 24.578125 -14.820312 24.824219 -14.820312 C 24.824219 -14.574219 24.578125 -14.449219 24.328125 -14.328125 Z M 26.800781 -16.300781 C 27.046875 -16.300781 27.171875 -16.425781 27.171875 -16.671875 Z M 39.148438 -72.742188 C 39.398438 -73.113281 39.519531 -73.113281 39.644531 -72.742188 L 39.644531 -72.867188 C 39.519531 -72.621094 39.398438 -72.742188 39.148438 -72.742188 Z M 36.308594 -74.347656 C 36.1875 -74.472656 35.9375 -74.59375 35.816406 -74.347656 C 35.9375 -74.226562 36.1875 -74.101562 36.308594 -74.347656 Z M 31.863281 -68.296875 C 31.617188 -68.421875 31.371094 -68.667969 31.371094 -68.296875 C 31.492188 -68.296875 31.617188 -68.050781 31.863281 -68.296875 Z M 23.09375 -68.789062 C 23.21875 -68.914062 23.34375 -69.160156 23.464844 -69.039062 C 23.464844 -69.160156 23.464844 -69.039062 23.589844 -68.914062 L 23.464844 -68.789062 C 23.34375 -68.914062 23.21875 -68.667969 23.09375 -68.789062 Z M 28.160156 -17.660156 C 27.910156 -17.660156 27.789062 -17.414062 27.664062 -17.167969 C 27.910156 -17.289062 28.035156 -17.414062 28.160156 -17.660156 Z M 10.867188 -66.074219 C 10.867188 -66.445312 11.113281 -66.320312 11.238281 -66.199219 C 11.113281 -65.949219 10.992188 -66.074219 10.867188 -66.074219 Z M 8.769531 -66.074219 C 8.644531 -66.074219 8.769531 -65.828125 8.769531 -65.828125 L 8.523438 -65.828125 C 8.523438 -65.949219 8.523438 -66.199219 8.644531 -66.074219 Z M 40.015625 -73.113281 C 39.890625 -72.867188 39.769531 -72.742188 39.769531 -72.742188 C 39.769531 -73.113281 39.769531 -73.113281 40.015625 -73.113281 Z M 36.308594 -74.347656 C 36.433594 -74.347656 36.558594 -74.226562 36.679688 -74.226562 L 36.679688 -74.347656 C 36.679688 -74.347656 36.679688 -74.472656 36.558594 -74.472656 C 36.558594 -74.472656 36.433594 -74.472656 36.308594 -74.347656 Z M 30.011719 -70.027344 C 29.886719 -70.519531 30.011719 -70.394531 30.132812 -70.519531 C 30.132812 -70.148438 30.011719 -70.027344 30.011719 -70.027344 Z M 38.164062 -75.089844 C 38.164062 -74.964844 38.410156 -74.71875 38.53125 -74.964844 C 38.410156 -75.089844 38.410156 -75.089844 38.164062 -75.089844 Z M 19.390625 -9.261719 C 19.144531 -9.507812 19.390625 -9.507812 19.511719 -9.507812 C 19.511719 -9.386719 19.511719 -9.386719 19.390625 -9.261719 Z M 21.738281 -11.609375 C 21.488281 -11.855469 21.738281 -11.855469 21.859375 -11.855469 C 21.859375 -11.734375 21.859375 -11.734375 21.738281 -11.609375 Z M 14.695312 -1.730469 C 14.574219 -1.730469 14.449219 -1.851562 14.449219 -1.851562 L 14.449219 -1.605469 C 14.449219 -1.730469 14.574219 -1.730469 14.695312 -1.730469 Z M 43.347656 -72.867188 C 43.226562 -72.988281 43.226562 -73.113281 43.347656 -72.988281 Z M 9.015625 -66.199219 C 9.015625 -65.949219 8.890625 -65.949219 8.769531 -65.949219 C 8.769531 -66.074219 8.769531 -66.199219 9.015625 -66.199219 Z M 0.863281 -7.535156 C 1.113281 -7.285156 0.742188 -7.285156 0.617188 -7.285156 C 0.742188 -7.285156 0.742188 -7.410156 0.863281 -7.535156 Z M 24.949219 -72.003906 C 24.949219 -72.003906 24.824219 -72.003906 24.699219 -71.878906 L 25.070312 -71.878906 C 24.949219 -71.878906 24.949219 -72.125 24.949219 -72.003906 Z M 27.046875 -69.53125 C 27.046875 -69.53125 26.921875 -69.53125 26.800781 -69.65625 C 26.921875 -69.65625 27.046875 -69.65625 27.046875 -69.53125 Z M 36.558594 -69.410156 C 36.558594 -69.53125 36.433594 -69.53125 36.308594 -69.410156 L 36.1875 -69.410156 C 36.308594 -69.410156 36.308594 -69.285156 36.308594 -69.285156 Z M 32.480469 -22.355469 C 32.234375 -22.355469 32.359375 -22.355469 32.359375 -22.476562 L 32.480469 -22.476562 Z M 26.554688 -68.296875 C 26.554688 -68.296875 26.429688 -68.296875 26.429688 -68.421875 L 26.429688 -68.171875 C 26.554688 -68.050781 26.554688 -68.171875 26.554688 -68.296875 Z M 29.023438 -67.679688 C 29.023438 -67.804688 29.023438 -67.804688 28.898438 -67.804688 L 29.023438 -67.554688 C 29.023438 -67.554688 29.023438 -67.679688 29.023438 -67.679688 Z M 19.761719 -9.878906 C 20.007812 -9.632812 19.761719 -9.632812 19.636719 -9.632812 C 19.761719 -9.757812 19.761719 -9.757812 19.761719 -9.878906 Z M 11.855469 -65.703125 C 11.734375 -65.703125 11.734375 -65.703125 11.734375 -65.457031 C 11.734375 -65.457031 11.855469 -65.457031 11.855469 -65.703125 Z M 37.667969 -74.71875 C 37.667969 -74.71875 37.296875 -74.964844 37.542969 -74.59375 Z M 14.449219 -1.480469 L 14.328125 -1.480469 L 14.328125 -1.605469 Z M 32.605469 -22.722656 C 32.605469 -22.601562 32.605469 -22.476562 32.480469 -22.476562 C 32.605469 -22.476562 32.726562 -22.476562 32.605469 -22.722656 Z M 32.234375 -22.355469 C 32.109375 -22.355469 31.988281 -22.355469 32.234375 -22.105469 Z M 30.011719 -72.742188 L 30.011719 -72.496094 Z M 35.199219 -71.632812 C 35.199219 -71.753906 35.320312 -71.632812 35.320312 -71.632812 Z M 26.800781 -16.179688 L 26.675781 -16.179688 L 26.675781 -16.300781 Z M 14.449219 -1.851562 C 14.328125 -1.851562 14.328125 -1.976562 14.328125 -1.976562 Z M 39.769531 -70.644531 C 39.769531 -70.644531 39.890625 -70.644531 39.890625 -70.765625 C 39.890625 -70.765625 39.769531 -71.015625 39.769531 -70.644531 Z M 37.667969 -74.71875 C 37.667969 -74.84375 37.792969 -74.59375 37.667969 -74.964844 Z M 21.117188 -77.804688 L 20.996094 -77.929688 Z M 26.183594 -16.300781 C 26.304688 -16.179688 26.183594 -16.179688 26.183594 -16.179688 Z M 27.789062 -72.371094 C 27.789062 -72.371094 27.910156 -72.371094 27.910156 -72.496094 Z M 18.523438 -8.398438 L 18.402344 -8.273438 Z M 26.675781 -16.671875 L 26.800781 -16.796875 Z M 13.957031 -1.113281 L 13.957031 -0.988281 Z M 22.972656 -68.789062 C 22.972656 -68.667969 23.09375 -68.667969 23.09375 -68.789062 Z M 22.972656 -68.789062 "/></g></g></g></svg>